<svg
                width="12"
                height="12"
                viewBox="0 0 12 12"
                fill="none"
                xmlns="http://www.w3.org/2000/svg"
              >
                <path
                  fillRule="evenodd"
                  clipRule="evenodd"
                  d="M9.18994 11.0596C9.4633 11.333 9.90652 11.333 10.1799 11.0596C10.4533 10.7863 10.4533 10.343 10.1799 10.0697L6.32989 6.21967L5.83491 5.7247L5.33994 6.21967L1.48994 10.0697C1.21657 10.343 1.21657 10.7863 1.48994 11.0596C1.7633 11.333 2.20652 11.333 2.47989 11.0596L5.83491 7.7046L9.18994 11.0596ZM9.18994 6.10962C9.4633 6.38299 9.90652 6.38299 10.1799 6.10962C10.4533 5.83626 10.4533 5.39304 10.1799 5.11967L6.32989 1.26967L5.83491 0.774698L5.33994 1.26967L1.48994 5.11967C1.21657 5.39304 1.21657 5.83626 1.48994 6.10962C1.7633 6.38299 2.20652 6.38299 2.47989 6.10962L5.83491 2.7546L9.18994 6.10962Z"
                  fill="#57D974"
                />
              </svg>
