<svg width="16" height="17" viewBox="0 0 16 17" fill="none" xmlns="http://www.w3.org/2000/svg">
<path d="M8.73307 4.94534L4.50315 9.17449C4.12893 9.54881 3.91874 10.0565 3.91881 10.5858C3.91888 11.115 4.12922 11.6226 4.50354 11.9969C4.87785 12.3711 5.3855 12.5813 5.9148 12.5812C6.44409 12.5811 6.95168 12.3708 7.3259 11.9965L11.9032 7.41917C12.2287 7.09574 12.487 6.71114 12.6632 6.2875C12.8395 5.86386 12.9302 5.40954 12.9302 4.9507C12.9302 4.49186 12.8395 4.03754 12.6632 3.6139C12.487 3.19026 12.2287 2.80566 11.9032 2.48223C11.245 1.84378 10.3614 1.49087 9.4444 1.50018C8.52744 1.50949 7.6512 1.88028 7.00606 2.53197L2.38896 7.0603C1.4854 8.00172 0.986842 9.25981 1.00026 10.5646C1.01369 11.8694 1.53802 13.117 2.46076 14.0396C3.38349 14.9623 4.63112 15.4865 5.93592 15.4997C7.24073 15.513 8.49877 15.0143 9.44009 14.1107L15.0848 8.51567" stroke="#5B5967" strokeWidth="1.4" stroke-linecap="round" stroke-linejoin="round"/>
</svg>
