<svg width="20" height="20" viewBox="0 0 20 20" fill="none" xmlns="http://www.w3.org/2000/svg">
<g clip-path="url(#clip0_1886_20503)">
<path d="M14.3164 10.1523C13.9258 9.95312 13.4453 10.1055 13.2422 10.5C13.043 10.8906 13.1992 11.3711 13.5898 11.5742C16.2969 12.9531 17.9766 15.7148 17.9766 18.7734C17.9766 19.2148 18.332 19.5703 18.7734 19.5703C19.2148 19.5703 19.5703 19.2148 19.5703 18.7734C19.5703 15.1094 17.5547 11.8047 14.3164 10.1523Z" fill="#5B5967"/>
<path d="M5.59766 10.1953C2.41016 11.8672 0.429688 15.1524 0.429688 18.7735C0.429688 19.2149 0.785156 19.5703 1.22656 19.5703C1.66797 19.5703 2.02344 19.2149 2.02344 18.7735C2.02344 15.75 3.67578 13.0039 6.33594 11.6094C6.72656 11.4063 6.875 10.9219 6.67188 10.5313C6.46875 10.1446 5.98438 9.99221 5.59766 10.1953Z" fill="#5B5967"/>
<path d="M10 10.5703C12.7734 10.5703 15.0273 8.29688 15.0273 5.5C15.0273 2.70313 12.7734 0.429688 10 0.429688C7.22656 0.429688 4.97266 2.70313 4.97266 5.5C4.97266 8.29688 7.22656 10.5703 10 10.5703ZM10 2.02344C11.8945 2.02344 13.4336 3.58203 13.4336 5.5C13.4336 7.41797 11.8945 8.97656 10 8.97656C8.10547 8.97656 6.56641 7.41797 6.56641 5.5C6.56641 3.58203 8.10547 2.02344 10 2.02344Z" fill="#5B5967"/>
<path d="M11.6797 11.7266C11.6133 11.3477 11.2813 11.0703 10.8945 11.0703H9.10548C8.71876 11.0703 8.38673 11.3477 8.32032 11.7266L7.41408 16.7852C7.35158 17.1328 7.52736 17.4844 7.84376 17.6406L9.67579 18.5469C9.94923 18.6758 10.1328 18.6914 10.3945 18.543L12.1602 17.6367C12.4727 17.4766 12.6445 17.1328 12.582 16.7852L11.6797 11.7266ZM10.0274 16.9375L9.09376 16.4766L9.77736 12.6641H10.2305L10.9141 16.4844L10.0274 16.9375Z" fill="#5B5967"/>
</g>
<defs>
<clipPath id="clip0_1886_20503">
<rect width="20" height="20" fill="white"/>
</clipPath>
</defs>
</svg>
