<svg width="16" height="15" viewBox="0 0 16 15" fill="none" xmlns="http://www.w3.org/2000/svg">
<path fillRule="evenodd" clipRule="evenodd" d="M5.32109 0C5.67502 0 5.96193 0.286914 5.96193 0.640841V1.37183H10.1676V0.640841C10.1676 0.286914 10.4545 0 10.8084 0C11.1623 0 11.4493 0.286914 11.4493 0.640841V1.37183H12.8655C13.9771 1.37183 14.8782 2.27294 14.8782 3.3845V12.9873C14.8782 14.0989 13.9771 15 12.8655 15H3.26267C2.1511 15 1.25 14.0989 1.25 12.9873V3.3845C1.25 2.27294 2.1511 1.37183 3.26267 1.37183H4.68025V0.640841C4.68025 0.286914 4.96716 0 5.32109 0ZM2.53168 6.76901V12.9873C2.53168 13.391 2.85896 13.7183 3.26267 13.7183H12.8655C13.2692 13.7183 13.5965 13.391 13.5965 12.9873V6.76901H2.53168ZM13.5965 5.48733H2.53168V3.3845C2.53168 2.98079 2.85896 2.65351 3.26267 2.65351H4.68025V3.38451C4.68025 3.73843 4.96716 4.02535 5.32109 4.02535C5.67502 4.02535 5.96193 3.73843 5.96193 3.38451V2.65351H10.1676V3.38451C10.1676 3.73843 10.4545 4.02535 10.8084 4.02535C11.1623 4.02535 11.4493 3.73843 11.4493 3.38451V2.65351H12.8655C13.2692 2.65351 13.5965 2.98079 13.5965 3.3845V5.48733Z" fill="#2D2C37"/>
</svg>
