<svg width="28" height="28" viewBox="0 0 28 28" fill="none" xmlns="http://www.w3.org/2000/svg">
<path d="M13.8501 7.52778V14.25L18.1279 16.6944M24.8501 14.25C24.8501 15.6945 24.5656 17.1249 24.0128 18.4595C23.46 19.7941 22.6497 21.0067 21.6283 22.0282C20.6068 23.0496 19.3942 23.8599 18.0596 24.4127C16.725 24.9655 15.2946 25.25 13.8501 25.25C12.4056 25.25 10.9752 24.9655 9.64058 24.4127C8.306 23.8599 7.09337 23.0496 6.07192 22.0282C5.05048 21.0067 4.24022 19.7941 3.68742 18.4595C3.13462 17.1249 2.8501 15.6945 2.8501 14.25C2.8501 11.3326 4.00902 8.53473 6.07192 6.47183C8.13482 4.40893 10.9327 3.25 13.8501 3.25C16.7675 3.25 19.5654 4.40893 21.6283 6.47183C23.6912 8.53473 24.8501 11.3326 24.8501 14.25Z" stroke="#E0BF10" strokeWidth="1.375" stroke-linecap="round" stroke-linejoin="round"/>
</svg>
