<svg width="27" height="27" viewBox="0 0 27 27" fill="none" xmlns="http://www.w3.org/2000/svg">
<path d="M13.5997 7.00276V13.4002L17.6708 15.7266M24.0683 13.4002C24.0683 14.775 23.7975 16.1363 23.2714 17.4064C22.7453 18.6765 21.9742 19.8305 21.0021 20.8026C20.03 21.7747 18.8759 22.5458 17.6058 23.0719C16.3357 23.598 14.9744 23.8688 13.5997 23.8688C12.2249 23.8688 10.8636 23.598 9.59353 23.0719C8.32343 22.5458 7.16938 21.7747 6.19728 20.8026C5.22518 19.8305 4.45407 18.6765 3.92798 17.4064C3.40188 16.1363 3.1311 14.775 3.1311 13.4002C3.1311 10.6238 4.23404 7.96106 6.19728 5.99782C8.16052 4.03458 10.8232 2.93164 13.5997 2.93164C16.3761 2.93164 19.0389 4.03458 21.0021 5.99782C22.9653 7.96106 24.0683 10.6238 24.0683 13.4002Z" stroke="#5856D6" strokeWidth="1.30857" stroke-linecap="round" stroke-linejoin="round"/>
</svg>
