<svg width="17" height="18" viewBox="0 0 17 18" fill="none" xmlns="http://www.w3.org/2000/svg">
<path fillRule="evenodd" clipRule="evenodd" d="M9.18023 7.60733C9.19779 7.99353 9.5251 8.29238 9.9113 8.27482L16.2048 7.98876C16.591 7.9712 16.8898 7.64389 16.8723 7.25769C16.8547 6.87149 16.5274 6.57265 16.1412 6.5902L11.5359 6.79953L14.9364 3.07526L13.9025 2.13128L10.5021 5.85555L10.2927 1.25026C10.2752 0.864059 9.94786 0.565212 9.56166 0.582767C9.17546 0.600321 8.87661 0.927629 8.89417 1.31383L9.18023 7.60733ZM8.19438 10.3996C8.17683 10.0134 7.84952 9.71457 7.46332 9.73213L1.16982 10.0182C0.783615 10.0357 0.484768 10.3631 0.502322 10.7493C0.519877 11.1355 0.847185 11.4343 1.23339 11.4167L5.83868 11.2074L2.43826 14.9317L3.47214 15.8757L6.87256 12.1514L7.08189 16.7567C7.09945 17.1429 7.42675 17.4417 7.81295 17.4242C8.19916 17.4066 8.498 17.0793 8.48045 16.6931L8.19438 10.3996Z" fill="white"/>
</svg>
