<svg width="18" height="19" viewBox="0 0 18 19" fill="none" xmlns="http://www.w3.org/2000/svg">
<path fillRule="evenodd" clipRule="evenodd" d="M10.5859 0.776402L10.7953 5.3817L15.709 0L16.7429 0.943977L11.8292 6.32567L16.4344 6.11634C16.8206 6.09879 17.148 6.39764 17.1655 6.78384C17.1831 7.17004 16.8842 7.49734 16.498 7.5149L10.2045 7.80097C9.81831 7.81852 9.49101 7.51968 9.47345 7.13347L9.18738 0.839973C9.16983 0.453772 9.46868 0.126464 9.85488 0.108909C10.2411 0.0913548 10.5684 0.390201 10.5859 0.776402ZM7.69279 10.8777C7.67524 10.4915 7.34793 10.1927 6.96173 10.2102L0.668228 10.4963C0.282028 10.5138 -0.0168191 10.8412 0.000735438 11.2274C0.01829 11.6136 0.345598 11.9124 0.731799 11.8948L5.33709 11.6855L0.42337 17.0672L1.45725 18.0112L6.37097 12.6295L6.5803 17.2348C6.59786 17.621 6.92517 17.9198 7.31137 17.9023C7.69757 17.8847 7.99642 17.5574 7.97886 17.1712L7.69279 10.8777Z" fill="#5B5967"/>
</svg>
