<svg width="10" height="11" viewBox="0 0 10 11" fill="none" xmlns="http://www.w3.org/2000/svg">
<path fillRule="evenodd" clipRule="evenodd" d="M8.18994 10.5606C8.4633 10.834 8.90652 10.834 9.17989 10.5606C9.45325 10.2872 9.45325 9.84402 9.17989 9.57065L5.32989 5.72065L4.83491 5.22568L4.33994 5.72065L0.489937 9.57065C0.21657 9.84402 0.21657 10.2872 0.489937 10.5606C0.763305 10.834 1.20652 10.834 1.47989 10.5606L4.83491 7.20557L8.18994 10.5606ZM8.18994 5.6106C8.4633 5.88397 8.90652 5.88397 9.17989 5.6106C9.45325 5.33723 9.45325 4.89402 9.17989 4.62065L5.32989 0.77065L4.83491 0.275675L4.33994 0.77065L0.489937 4.62065C0.21657 4.89402 0.21657 5.33723 0.489937 5.6106C0.763305 5.88397 1.20652 5.88397 1.47989 5.6106L4.83491 2.25557L8.18994 5.6106Z" fill="#D72727"/>
</svg>
