<svg width="27" height="27" viewBox="0 0 27 27" fill="none" xmlns="http://www.w3.org/2000/svg">
<path d="M9.10595 8.30542C8.90009 8.51129 8.78444 8.79049 8.78444 9.08163C8.78444 9.37276 8.90009 9.65197 9.10595 9.85783L12.3477 13.0996L9.10595 16.3414C8.90009 16.5473 8.78444 16.8265 8.78444 17.1176C8.78444 17.4087 8.90009 17.6879 9.10595 17.8938C9.31181 18.0997 9.59102 18.2153 9.88215 18.2153C10.1733 18.2153 10.4525 18.0997 10.6584 17.8938L13.9001 14.652L17.1419 17.8938C17.3478 18.0997 17.627 18.2153 17.9181 18.2153C18.2093 18.2153 18.4885 18.0997 18.6943 17.8938C18.9002 17.6879 19.0158 17.4087 19.0158 17.1176C19.0158 16.8265 18.9002 16.5473 18.6943 16.3414L15.4525 13.0996L18.6943 9.85783C18.9002 9.65197 19.0158 9.37276 19.0158 9.08163C19.0158 8.79049 18.9002 8.51129 18.6943 8.30542C18.4885 8.09956 18.2093 7.98391 17.9181 7.98391C17.627 7.98391 17.3478 8.09956 17.1419 8.30542L13.9001 11.5472L10.6584 8.30542C10.4525 8.09956 10.1733 7.98391 9.88215 7.98391C9.59102 7.98391 9.31181 8.09956 9.10595 8.30542Z" fill="#D72727"/>
</svg>
