
<svg width="29" height="29" viewBox="0 0 29 29" fill="none" xmlns="http://www.w3.org/2000/svg">
<rect x="0.5" y="0.5" width="28" height="28" rx="14" fill="#0076BD"/>
<rect x="0.5" y="0.5" width="28" height="28" rx="14" stroke="white"/>
<path d="M8.80005 18.9423H20.1077V19.75H8.80005V18.9423ZM18.25 12.0769C18.5731 11.7538 18.5731 11.2692 18.25 10.9462L16.7962 9.49231C16.4731 9.16923 15.9885 9.16923 15.6654 9.49231L9.60774 15.55V18.1346H12.1924L18.25 12.0769ZM16.2308 10.0577L17.6847 11.5115L16.4731 12.7231L15.0193 11.2692L16.2308 10.0577ZM10.4154 17.3269V15.8731L14.4539 11.8346L15.9077 13.2885L11.8693 17.3269H10.4154Z" fill="white"/>
</svg>
