<svg width="17" height="18" viewBox="0 0 17 18" fill="none" xmlns="http://www.w3.org/2000/svg">
<path d="M0.300722 17.0318C0.318277 17.418 0.645585 17.7168 1.03179 17.6993L7.32529 17.4132C7.71149 17.3957 8.01033 17.0683 7.99278 16.6821C7.97522 16.2959 7.64792 15.9971 7.26172 16.0147L1.66749 16.2689L1.41321 10.6747C1.39566 10.2885 1.06835 9.98967 0.682146 10.0072C0.295946 10.0248 -0.00290084 10.3521 0.0146538 10.7383L0.300722 17.0318ZM16.308 0.968215C16.2904 0.582014 15.9631 0.283167 15.5769 0.300722L9.28341 0.58679C8.89721 0.604345 8.59836 0.931653 8.61592 1.31785C8.63347 1.70405 8.96078 2.0029 9.34698 1.98535L14.9412 1.73106L15.1955 7.32529C15.213 7.71149 15.5403 8.01033 15.9265 7.99278C16.3127 7.97522 16.6116 7.64792 16.594 7.26172L16.308 0.968215ZM1.51694 17.472L16.1256 1.47199L15.0918 0.528011L0.48306 16.528L1.51694 17.472Z" fill="#5B5967"/>
</svg>
