<svg width="14" height="9" viewBox="0 0 14 9" fill="none" xmlns="http://www.w3.org/2000/svg">
<path fillRule="evenodd" clipRule="evenodd" d="M5.00581 7.00581C4.87453 7.13708 4.80078 7.31513 4.80078 7.50078C4.80078 7.68643 4.87453 7.86448 5.00581 7.99576C5.13708 8.12703 5.31513 8.20078 5.50078 8.20078H8.50078C8.68643 8.20078 8.86448 8.12703 8.99576 7.99576C9.12703 7.86448 9.20078 7.68643 9.20078 7.50078C9.20078 7.31513 9.12703 7.13708 8.99576 7.00581C8.86448 6.87453 8.68643 6.80078 8.50078 6.80078H5.50078C5.31513 6.80078 5.13708 6.87453 5.00581 7.00581Z" fill="#2D2C37"/>
<path fillRule="evenodd" clipRule="evenodd" d="M3.00581 4.00581C2.87453 4.13708 2.80078 4.31513 2.80078 4.50078C2.80078 4.68643 2.87453 4.86448 3.00581 4.99576C3.13708 5.12703 3.31513 5.20078 3.50078 5.20078H10.5008C10.6864 5.20078 10.8645 5.12703 10.9958 4.99576C11.127 4.86448 11.2008 4.68643 11.2008 4.50078C11.2008 4.31513 11.127 4.13708 10.9958 4.00581C10.8645 3.87453 10.6864 3.80078 10.5008 3.80078H3.50078C3.31513 3.80078 3.13708 3.87453 3.00581 4.00581Z" fill="#2D2C37"/>
<path fillRule="evenodd" clipRule="evenodd" d="M1.00581 1.00581C0.874531 1.13708 0.800781 1.31513 0.800781 1.50078C0.800781 1.68643 0.874531 1.86448 1.00581 1.99576C1.13708 2.12703 1.31513 2.20078 1.50078 2.20078H12.5008C12.6864 2.20078 12.8645 2.12703 12.9958 1.99576C13.127 1.86448 13.2008 1.68643 13.2008 1.50078C13.2008 1.31513 13.127 1.13708 12.9958 1.00581C12.8645 0.874531 12.6864 0.800781 12.5008 0.800781H1.50078C1.31513 0.800781 1.13708 0.874531 1.00581 1.00581Z" fill="#2D2C37"/>
</svg>
