<svg width="20" height="20" viewBox="0 0 20 20" fill="none" xmlns="http://www.w3.org/2000/svg">
<path d="M15.5343 16.5457L13.5043 14.5143C12.5027 15.294 11.2692 15.7163 10 15.7143C8.73076 15.7163 7.49727 15.294 6.49571 14.5143L4.46571 16.5457C6.01153 17.8565 7.97327 18.5745 10 18.5714C12.11 18.5714 14.0429 17.8086 15.5343 16.5457ZM16.5457 15.5343C17.8565 13.9885 18.5745 12.0267 18.5714 10C18.5714 7.89 17.8086 5.95714 16.5457 4.46571L14.5143 6.49571C15.2657 7.46429 15.7143 8.68 15.7143 10C15.7143 11.32 15.2657 12.5357 14.5143 13.5043L16.5457 15.5343ZM15.5343 3.45429C13.9885 2.14352 12.0267 1.42547 10 1.42857C7.89 1.42857 5.95714 2.19143 4.46571 3.45429L6.49571 5.48571C7.49727 4.70605 8.73076 4.28366 10 4.28571C11.32 4.28571 12.5357 4.73429 13.5043 5.48571L15.5343 3.45429ZM3.45429 4.46571C2.14352 6.01153 1.42547 7.97327 1.42857 10C1.42857 12.11 2.19143 14.0429 3.45429 15.5343L5.48571 13.5043C4.70605 12.5027 4.28366 11.2692 4.28571 10C4.28571 8.68 4.73429 7.46429 5.48571 6.49571L3.45429 4.46571ZM12.7686 13.2714C12.9497 13.1178 13.1178 12.9497 13.2714 12.7686C13.9043 12.0214 14.2857 11.0543 14.2857 10C14.2869 9.37703 14.1517 8.76136 13.8896 8.19621C13.6275 7.63105 13.2449 7.13012 12.7686 6.72857C11.9954 6.07248 11.014 5.71293 10 5.71429C9.37703 5.71312 8.76136 5.84834 8.19621 6.11043C7.63105 6.37252 7.13012 6.75514 6.72857 7.23143C6.09571 7.97857 5.71429 8.94571 5.71429 10C5.71312 10.623 5.84834 11.2386 6.11043 11.8038C6.37252 12.3689 6.75514 12.8699 7.23143 13.2714C7.97857 13.9043 8.94571 14.2857 10 14.2857C11.0557 14.2857 12.0214 13.9043 12.7686 13.2714ZM10 20C7.34784 20 4.8043 18.9464 2.92893 17.0711C1.05357 15.1957 0 12.6522 0 10C0 7.34784 1.05357 4.8043 2.92893 2.92893C4.8043 1.05357 7.34784 0 10 0C12.6522 0 15.1957 1.05357 17.0711 2.92893C18.9464 4.8043 20 7.34784 20 10C20 12.6522 18.9464 15.1957 17.0711 17.0711C15.1957 18.9464 12.6522 20 10 20Z" fill="#2D2C37"/>
</svg>
