<svg width="17" height="14" viewBox="0 0 17 14" fill="none" xmlns="http://www.w3.org/2000/svg">
<path fillRule="evenodd" clipRule="evenodd" d="M0 1.16667C0 1.811 0.522334 2.33333 1.16667 2.33333H1.16678C1.81112 2.33333 2.33345 1.811 2.33345 1.16667C2.33345 0.522334 1.81112 0 1.16678 0H1.16667C0.522334 0 0 0.522334 0 1.16667ZM3.73336 1.1667C3.73336 1.68216 4.15123 2.10003 4.6667 2.10003H16C16.5155 2.10003 16.9334 1.68216 16.9334 1.1667C16.9334 0.65123 16.5155 0.233362 16 0.233362H4.6667C4.15123 0.233362 3.73336 0.65123 3.73336 1.1667ZM1.16667 8.16667C0.522334 8.16667 0 7.64433 0 7C0 6.35567 0.522334 5.83333 1.16667 5.83333H1.16678C1.81112 5.83333 2.33345 6.35567 2.33345 7C2.33345 7.64433 1.81112 8.16667 1.16678 8.16667H1.16667ZM4.6667 7.93336C4.15123 7.93336 3.73336 7.51549 3.73336 7.00003C3.73336 6.48456 4.15123 6.0667 4.6667 6.0667H16C16.5155 6.0667 16.9334 6.48456 16.9334 7.00003C16.9334 7.51549 16.5155 7.93336 16 7.93336H4.6667ZM1.16667 14C0.522334 14 0 13.4777 0 12.8333C0 12.189 0.522334 11.6667 1.16667 11.6667H1.16678C1.81112 11.6667 2.33345 12.189 2.33345 12.8333C2.33345 13.4777 1.81112 14 1.16678 14H1.16667ZM4.6667 13.7667C4.15123 13.7667 3.73336 13.3488 3.73336 12.8334C3.73336 12.3179 4.15123 11.9 4.6667 11.9H16C16.5155 11.9 16.9334 12.3179 16.9334 12.8334C16.9334 13.3488 16.5155 13.7667 16 13.7667H4.6667Z" fill="#5B5967"/>
</svg>
