<svg width="20" height="20" viewBox="0 0 20 20" fill="none" xmlns="http://www.w3.org/2000/svg">
<path d="M10 0C5.66129 0 2.13147 3.52982 2.13147 7.86855C2.13147 9.28946 2.49812 10.7979 3.2212 12.3519C3.79215 13.5788 4.58613 14.8383 5.58111 16.0952C7.26785 18.2261 8.93084 19.599 9.00084 19.6564C9.27097 19.8779 9.62581 20 10 20C10.3742 20 10.7291 19.8779 10.9993 19.6563C11.0692 19.5989 12.7322 18.2261 14.4189 16.0952C15.4139 14.8383 16.2079 13.5788 16.7788 12.3518C17.5019 10.7978 17.8686 9.28946 17.8686 7.86851C17.8686 3.52982 14.3388 0 10 0ZM13.7208 15.5191C12.0939 17.5777 10.4417 18.9432 10.4253 18.9567C10.3181 19.0446 10.1631 19.095 10 19.095C9.83694 19.095 9.68197 19.0446 9.57482 18.9567C9.50943 18.903 3.03649 13.5273 3.03649 7.86855C3.03645 4.02882 6.16029 0.904977 10 0.904977C13.8398 0.904977 16.9636 4.02882 16.9636 7.86855C16.9636 10.8004 15.2001 13.6472 13.7208 15.5191Z" fill="#5B5967"/>
<path d="M10 3.685C7.69321 3.685 5.81647 5.56174 5.81647 7.86857C5.81647 10.1754 7.69321 12.0521 10 12.0521C12.3068 12.0521 14.1835 10.1754 14.1835 7.86857C14.1835 5.56174 12.3068 3.685 10 3.685ZM10 11.1471C8.19217 11.1471 6.72144 9.6764 6.72144 7.86857C6.72144 6.06074 8.19217 4.58997 10 4.58997C11.8078 4.58997 13.2785 6.06074 13.2785 7.86857C13.2785 9.6764 11.8078 11.1471 10 11.1471Z" fill="#5B5967"/>
</svg>
