<svg width="15" height="15" viewBox="0 0 15 15" fill="none" xmlns="http://www.w3.org/2000/svg">
<path d="M7.656 1C9.70025 1 11.5931 1.90675 12.8482 3.4336C12.884 3.47688 12.9106 3.52691 12.9267 3.58072C12.9427 3.63452 12.9477 3.691 12.9415 3.74679C12.9352 3.80258 12.9178 3.85655 12.8903 3.90548C12.8628 3.95441 12.8257 3.9973 12.7813 4.0316C12.6908 4.10252 12.5762 4.13539 12.4619 4.12326C12.3476 4.11112 12.2425 4.05493 12.169 3.9666C11.6201 3.3018 10.9305 2.76711 10.15 2.40112C9.36947 2.03513 8.51743 1.84696 7.65535 1.8502C4.4606 1.8502 1.87035 4.38 1.87035 7.5C1.87035 10.62 4.4606 13.1498 7.65535 13.1498C8.52985 13.1531 9.39388 12.9595 10.1833 12.5834C10.9728 12.2072 11.6675 11.6581 12.2157 10.9768C12.2881 10.8876 12.3923 10.83 12.5064 10.8163C12.6204 10.8026 12.7353 10.8338 12.8268 10.9034C12.8716 10.9371 12.9092 10.9795 12.9373 11.028C12.9654 11.0766 12.9835 11.1303 12.9905 11.1859C12.9975 11.2416 12.9932 11.2981 12.9779 11.352C12.9626 11.406 12.9366 11.4564 12.9015 11.5001C11.6483 13.0666 9.73015 14 7.656 14C3.97895 14 1 11.0899 1 7.5C1 3.91005 3.9796 1 7.656 1ZM12.1137 5.654L13.8726 7.41355C14.0429 7.5832 14.0462 7.85555 13.8804 8.02195L12.1618 9.7399C12.0803 9.8197 11.9703 9.86384 11.8563 9.86262C11.7422 9.86141 11.6332 9.81492 11.5534 9.7334C11.5129 9.6939 11.4806 9.64681 11.4583 9.59481C11.436 9.54281 11.4242 9.48693 11.4235 9.43036C11.4229 9.37379 11.4334 9.31764 11.4544 9.26513C11.4755 9.21262 11.5067 9.16478 11.5463 9.12435L12.5518 8.1188H5.8503C5.79379 8.11949 5.7377 8.10904 5.68523 8.08804C5.63276 8.06705 5.58494 8.03593 5.5445 7.99645C5.50406 7.95698 5.47179 7.90992 5.44954 7.85798C5.42728 7.80603 5.41548 7.75021 5.4148 7.6937C5.4148 7.4584 5.6098 7.26795 5.8503 7.26795H12.5252L11.5125 6.25525C11.4308 6.17551 11.3842 6.06662 11.3829 5.95253C11.3816 5.83844 11.4256 5.72849 11.5053 5.64685C11.5869 5.56714 11.6969 5.52311 11.811 5.52445C11.9251 5.52579 12.034 5.57239 12.1137 5.654Z" fill="#5B5967" stroke="#5B5967" strokeWidth="0.4"/>
</svg>
