<svg width="12" height="11" viewBox="0 0 12 11" fill="none" xmlns="http://www.w3.org/2000/svg">
<path fillRule="evenodd" clipRule="evenodd" d="M2.47998 0.611275C2.20662 0.337908 1.7634 0.337908 1.49003 0.611275C1.21667 0.884642 1.21667 1.32786 1.49003 1.60122L5.34003 5.45122L5.83501 5.9462L6.32998 5.45122L10.18 1.60122C10.4534 1.32786 10.4534 0.884642 10.18 0.611275C9.90662 0.337908 9.4634 0.337908 9.19004 0.611275L5.83501 3.9663L2.47998 0.611275ZM2.47998 5.56127C2.20662 5.28791 1.7634 5.28791 1.49003 5.56127C1.21667 5.83464 1.21667 6.27786 1.49003 6.55122L5.34003 10.4012L5.83501 10.8962L6.32998 10.4012L10.18 6.55122C10.4534 6.27786 10.4534 5.83464 10.18 5.56127C9.90662 5.28791 9.4634 5.28791 9.19004 5.56127L5.83501 8.9163L2.47998 5.56127Z" fill="#ACABB3"/>
</svg>
