<svg width="20" height="18" viewBox="0 0 20 18" fill="none" xmlns="http://www.w3.org/2000/svg">
<path d="M10 8.2V7.75M13.6 8.2V7.75M6.4 8.2V7.75M2.3176 13.4452C1 12.3913 1 11.5939 1 8.2C1 4.8061 1 3.1087 2.3176 2.0548C3.637 1 5.7574 1 10 1C14.2426 1 16.3639 1 17.6815 2.0548C19 3.1087 19 4.8061 19 8.2C19 11.5939 19 12.3913 17.6815 13.4452C16.3648 14.5 14.2426 14.5 10 14.5C7.741 14.5 6.58 16.0642 4.6 17.2V14.3092C3.6154 14.1625 2.8909 13.9042 2.3176 13.4452Z" stroke="#2D2C37" strokeWidth="1.5" stroke-linecap="round" stroke-linejoin="round"/>
</svg>
