<svg width="17" height="20" viewBox="0 0 17 20" fill="none" xmlns="http://www.w3.org/2000/svg">
<path d="M16.6981 4.07115L12.8519 0.225C12.7804 0.153589 12.6956 0.0969631 12.6022 0.0583569C12.5088 0.0197506 12.4087 -7.92199e-05 12.3077 2.37845e-07H4.61539C4.20736 2.37845e-07 3.81605 0.162088 3.52753 0.450605C3.23901 0.739123 3.07692 1.13044 3.07692 1.53846V3.07692H1.53846C1.13044 3.07692 0.739122 3.23901 0.450605 3.52753C0.162087 3.81605 0 4.20736 0 4.61539V18.4615C0 18.8696 0.162087 19.2609 0.450605 19.5494C0.739122 19.8379 1.13044 20 1.53846 20H12.3077C12.7157 20 13.107 19.8379 13.3955 19.5494C13.6841 19.2609 13.8462 18.8696 13.8462 18.4615V16.9231H15.3846C15.7926 16.9231 16.184 16.761 16.4725 16.4725C16.761 16.184 16.9231 15.7926 16.9231 15.3846V4.61539C16.9232 4.51434 16.9033 4.41427 16.8647 4.32089C16.8261 4.2275 16.7695 4.14264 16.6981 4.07115ZM12.3077 18.4615H1.53846V4.61539H8.9125L12.3077 8.01058V18.4615ZM15.3846 15.3846H13.8462V7.69231C13.8462 7.59126 13.8264 7.49119 13.7878 7.39781C13.7492 7.30443 13.6926 7.21957 13.6212 7.14808L9.775 3.30192C9.70351 3.23051 9.61865 3.17389 9.52527 3.13528C9.43189 3.09667 9.33182 3.07684 9.23077 3.07692H4.61539V1.53846H11.9894L15.3846 4.93365V15.3846ZM10 12.3077C10 12.5117 9.91896 12.7074 9.7747 12.8516C9.63044 12.9959 9.43478 13.0769 9.23077 13.0769H4.61539C4.41137 13.0769 4.21572 12.9959 4.07146 12.8516C3.9272 12.7074 3.84615 12.5117 3.84615 12.3077C3.84615 12.1037 3.9272 11.908 4.07146 11.7638C4.21572 11.6195 4.41137 11.5385 4.61539 11.5385H9.23077C9.43478 11.5385 9.63044 11.6195 9.7747 11.7638C9.91896 11.908 10 12.1037 10 12.3077ZM10 15.3846C10 15.5886 9.91896 15.7843 9.7747 15.9285C9.63044 16.0728 9.43478 16.1538 9.23077 16.1538H4.61539C4.41137 16.1538 4.21572 16.0728 4.07146 15.9285C3.9272 15.7843 3.84615 15.5886 3.84615 15.3846C3.84615 15.1806 3.9272 14.9849 4.07146 14.8407C4.21572 14.6964 4.41137 14.6154 4.61539 14.6154H9.23077C9.43478 14.6154 9.63044 14.6964 9.7747 14.8407C9.91896 14.9849 10 15.1806 10 15.3846Z" fill="#304156"/>
</svg>
