<svg width="20" height="20" viewBox="0 0 20 20" fill="none" xmlns="http://www.w3.org/2000/svg">
<path fillRule="evenodd" clipRule="evenodd" d="M10.0023 1.4C5.25139 1.4 1.4 5.25139 1.4 10.0023C1.4 12.3679 2.35484 14.5105 3.90014 16.0656C4.06843 15.1617 4.39838 14.3094 5.05954 13.6238C6.05016 12.5967 7.63384 12.093 10.0024 12.093C12.3709 12.093 13.9545 12.5967 14.9452 13.6238C15.6063 14.3094 15.9363 15.1617 16.1046 16.0656C17.6498 14.5104 18.6047 12.3679 18.6047 10.0023C18.6047 5.25139 14.7533 1.4 10.0023 1.4ZM14.8319 17.122C14.7367 15.9955 14.4919 15.1706 13.9374 14.5957C13.3339 13.9699 12.2152 13.493 10.0024 13.493C7.78947 13.493 6.67082 13.9699 6.06726 14.5957C5.51282 15.1706 5.26797 15.9955 5.17279 17.122C6.54962 18.0578 8.21211 18.6047 10.0023 18.6047C11.7926 18.6047 13.4551 18.0578 14.8319 17.122ZM0 10.0023C0 4.47819 4.47819 0 10.0023 0C15.5265 0 20.0047 4.47819 20.0047 10.0023C20.0047 15.5265 15.5265 20.0047 10.0023 20.0047C4.47819 20.0047 0 15.5265 0 10.0023ZM10.0023 5.12093C8.84766 5.12093 7.91163 6.05697 7.91163 7.21163C7.91163 8.36629 8.84766 9.30233 10.0023 9.30233C11.157 9.30233 12.093 8.36629 12.093 7.21163C12.093 6.05697 11.157 5.12093 10.0023 5.12093ZM6.51163 7.21163C6.51163 5.28377 8.07447 3.72093 10.0023 3.72093C11.9302 3.72093 13.493 5.28377 13.493 7.21163C13.493 9.13949 11.9302 10.7023 10.0023 10.7023C8.07447 10.7023 6.51163 9.13949 6.51163 7.21163Z" fill="#0076BD"/>
</svg>
