<svg width="21" height="22" viewBox="0 0 21 22" fill="none" xmlns="http://www.w3.org/2000/svg">
<path d="M7.89592 17.5517C7.38695 17.5517 6.94695 17.831 6.70764 18.2414H2.82488L4.65109 14.7297C4.80764 14.7676 4.96902 14.7931 5.1373 14.7931C6.27799 14.7931 7.20626 13.8648 7.20626 12.7241C7.20626 11.5834 6.27799 10.6552 5.1373 10.6552C3.99661 10.6552 3.06833 11.5834 3.06833 12.7241C3.06833 13.1924 3.2304 13.6193 3.49316 13.9662L1.0773 18.6138C1.02286 18.7189 0.996378 18.8362 1.0004 18.9545C1.00442 19.0727 1.0388 19.188 1.10025 19.2891C1.16169 19.3903 1.24813 19.4739 1.35125 19.532C1.45436 19.59 1.57068 19.6206 1.68902 19.6207H6.70764C6.94695 20.031 7.38695 20.3103 7.89592 20.3103C8.26173 20.3103 8.61257 20.165 8.87124 19.9064C9.12991 19.6477 9.27523 19.2969 9.27523 18.931C9.27523 18.5652 9.12991 18.2144 8.87124 17.9557C8.61257 17.697 8.26173 17.5517 7.89592 17.5517ZM5.1373 12.0345C5.31487 12.0424 5.48254 12.1186 5.60538 12.247C5.72823 12.3755 5.79679 12.5464 5.79679 12.7241C5.79679 12.9019 5.72823 13.0728 5.60538 13.2013C5.48254 13.3297 5.31487 13.4059 5.1373 13.4138C4.95439 13.4138 4.77897 13.3411 4.64964 13.2118C4.5203 13.0825 4.44764 12.907 4.44764 12.7241C4.44764 12.5412 4.5203 12.3658 4.64964 12.2365C4.77897 12.1071 4.95439 12.0345 5.1373 12.0345ZM20.2318 18.6131L17.4456 13.2538C17.5592 12.9805 17.582 12.6779 17.5104 12.3907C17.4389 12.1035 17.2768 11.8469 17.0482 11.6589C16.8196 11.4709 16.5366 11.3614 16.241 11.3466C15.9454 11.3317 15.6529 11.4124 15.4066 11.5767C15.1604 11.7409 14.9735 11.98 14.8736 12.2586C14.7737 12.5373 14.7661 12.8406 14.8519 13.1239C14.9377 13.4072 15.1123 13.6553 15.35 13.8317C15.5877 14.0081 15.8758 14.1034 16.1718 14.1034C16.2235 14.1034 16.2732 14.0938 16.3235 14.0876L18.4842 18.2414H15.3552C15.2135 17.8391 14.9508 17.4905 14.6031 17.2436C14.2553 16.9966 13.8397 16.8633 13.4132 16.8621C12.2725 16.8621 11.3442 17.7903 11.3442 18.931C11.3442 20.0717 12.2725 21 13.4132 21C13.8397 20.9987 14.2553 20.8655 14.6031 20.6185C14.9508 20.3715 15.2135 20.023 15.3552 19.6207H19.6201C19.7386 19.6207 19.8551 19.5902 19.9584 19.532C20.0617 19.4739 20.1483 19.3901 20.2098 19.2888C20.2712 19.1874 20.3056 19.0719 20.3094 18.9535C20.3133 18.835 20.2865 18.7182 20.2318 18.6131ZM13.4132 19.6207C13.2356 19.6127 13.0679 19.5366 12.9451 19.4082C12.8222 19.2797 12.7537 19.1088 12.7537 18.931C12.7537 18.7533 12.8222 18.5824 12.9451 18.4539C13.0679 18.3255 13.2356 18.2493 13.4132 18.2414C13.5907 18.2493 13.7584 18.3255 13.8812 18.4539C14.0041 18.5824 14.0727 18.7533 14.0727 18.931C14.0727 19.1088 14.0041 19.2797 13.8812 19.4082C13.7584 19.5366 13.5907 19.6127 13.4132 19.6207ZM14.1028 5.82759C13.9388 5.82926 13.7756 5.85056 13.6166 5.89103L11.2663 1.37241C11.1476 1.14276 10.9007 1 10.6545 1C10.4083 1 10.1614 1.14276 10.0428 1.37172L7.35799 6.5331C7.30833 6.5269 7.25868 6.51724 7.20626 6.51724C6.91025 6.51714 6.62206 6.61228 6.38427 6.78859C6.14649 6.96489 5.97174 7.21302 5.88584 7.4963C5.79994 7.77958 5.80746 8.08297 5.90727 8.36165C6.00709 8.64033 6.19391 8.8795 6.44013 9.04383C6.68634 9.20815 6.97889 9.2889 7.27454 9.27415C7.57018 9.2594 7.85324 9.14993 8.08188 8.96191C8.31052 8.7739 8.4726 8.51731 8.54418 8.23008C8.61576 7.94285 8.59304 7.64022 8.47937 7.3669L10.6545 3.18483L12.4587 6.65379C12.1845 7.01021 12.0353 7.44691 12.0338 7.89655C12.0338 9.03724 12.9621 9.96552 14.1028 9.96552C15.2435 9.96552 16.1718 9.03724 16.1718 7.89655C16.1718 6.75586 15.2435 5.82759 14.1028 5.82759ZM14.1028 8.58621C13.9252 8.57826 13.7576 8.50213 13.6347 8.37367C13.5119 8.2452 13.4433 8.0743 13.4433 7.89655C13.4433 7.7188 13.5119 7.5479 13.6347 7.41944C13.7576 7.29097 13.9252 7.21484 14.1028 7.2069C14.2804 7.21484 14.4481 7.29097 14.5709 7.41944C14.6937 7.5479 14.7623 7.7188 14.7623 7.89655C14.7623 8.0743 14.6937 8.2452 14.5709 8.37367C14.4481 8.50213 14.2804 8.57826 14.1028 8.58621Z" fill="#2D2C37" stroke="#2D2C37" strokeWidth="0.2"/>
</svg>
