<svg width="14" height="14" viewBox="0 0 14 14" fill="none" xmlns="http://www.w3.org/2000/svg">
<path fillRule="evenodd" clipRule="evenodd" d="M10.1457 9.14089C11.029 8.00214 11.4452 6.56966 11.3098 5.13488C11.1744 3.7001 10.4975 2.3708 9.41677 1.4174C8.33605 0.464007 6.9327 -0.04186 5.49224 0.00271404C4.05177 0.0472881 2.68239 0.638955 1.66268 1.65735C0.642082 2.67644 0.0484798 4.04636 0.00284052 5.48792C-0.0427987 6.92948 0.46296 8.33419 1.41705 9.41581C2.37114 10.4974 3.70176 11.1745 5.13774 11.3092C6.57373 11.4438 8.00701 11.0258 9.14551 10.1403L9.17597 10.1722L12.1807 13.1777C12.2465 13.2435 12.3247 13.2957 12.4107 13.3313C12.4966 13.3669 12.5888 13.3853 12.6819 13.3853C12.7749 13.3853 12.8671 13.3669 12.9531 13.3313C13.0391 13.2957 13.1172 13.2435 13.183 13.1777C13.2488 13.1119 13.301 13.0337 13.3366 12.9478C13.3723 12.8618 13.3906 12.7696 13.3906 12.6765C13.3906 12.5835 13.3723 12.4913 13.3366 12.4053C13.301 12.3193 13.2488 12.2412 13.183 12.1754L10.1776 9.17064C10.1672 9.16043 10.1566 9.15051 10.1457 9.14089ZM8.67518 2.65964C9.07511 3.0531 9.39317 3.52186 9.61103 4.03886C9.82889 4.55586 9.94223 5.11088 9.94452 5.67191C9.9468 6.23294 9.83798 6.78886 9.62434 7.30762C9.4107 7.82638 9.09646 8.29771 8.69975 8.69442C8.30305 9.09113 7.83172 9.40536 7.31296 9.61901C6.7942 9.83265 6.23827 9.94146 5.67724 9.93918C5.11622 9.9369 4.5612 9.82355 4.04419 9.6057C3.52719 9.38784 3.05844 9.06977 2.66497 8.66985C1.87866 7.87063 1.44002 6.79308 1.44458 5.67191C1.44915 4.55075 1.89656 3.4768 2.68935 2.68401C3.48214 1.89122 4.55608 1.44382 5.67724 1.43925C6.79841 1.43469 7.87596 1.87333 8.67518 2.65964Z" fill="#2D2C37"/>
</svg>
