<svg width="19" height="20" viewBox="0 0 19 20" fill="none" xmlns="http://www.w3.org/2000/svg">
<path fillRule="evenodd" clipRule="evenodd" d="M6.32535 2.80816C6.32535 2.62324 6.28892 2.44013 6.21815 2.26928C6.14739 2.09844 6.04366 1.9432 5.9129 1.81244C5.78214 1.68168 5.62691 1.57796 5.45606 1.50719C5.28521 1.43642 5.1021 1.4 4.91718 1.4C4.54371 1.4 4.18554 1.54836 3.92146 1.81244C3.65738 2.07652 3.50902 2.4347 3.50902 2.80816C3.50902 3.18163 3.65738 3.53981 3.92146 3.80389C4.18554 4.06797 4.54371 4.21633 4.91718 4.21633C5.1021 4.21633 5.28521 4.17991 5.45606 4.10914C5.62691 4.03837 5.78214 3.93465 5.9129 3.80389C6.04366 3.67313 6.14739 3.51789 6.21815 3.34705C6.28892 3.1762 6.32535 2.99309 6.32535 2.80816ZM7.63661 2.10783C7.60384 1.98057 7.5621 1.85548 7.51159 1.73353C7.37046 1.39282 7.16362 1.08326 6.90285 0.822492C6.64209 0.56173 6.33252 0.354882 5.99182 0.213759C5.65112 0.0726352 5.28595 0 4.91718 0C4.17241 0 3.45814 0.295859 2.93151 0.822492C2.57338 1.18062 2.32197 1.62553 2.19775 2.10779H0.7C0.313401 2.10779 0 2.42119 0 2.80779C0 3.19439 0.313401 3.50779 0.7 3.50779H2.19756C2.32171 3.99034 2.57319 4.43552 2.93151 4.79384C3.45814 5.32047 4.17241 5.61633 4.91718 5.61633C5.28595 5.61633 5.65112 5.54369 5.99182 5.40257C6.33252 5.26145 6.64209 5.0546 6.90285 4.79384C7.16362 4.53307 7.37046 4.2235 7.51159 3.8828C7.56219 3.76064 7.60398 3.63533 7.63678 3.50783L17.5662 3.50779C17.9528 3.50779 18.2662 3.19439 18.2662 2.80779C18.2662 2.42119 17.9528 2.10779 17.5662 2.10779L7.63661 2.10783ZM16.0694 8.83997C15.9453 8.35739 15.6938 7.91219 15.3355 7.55386C14.8088 7.02722 14.0946 6.73136 13.3498 6.73136C12.605 6.73136 11.8907 7.02722 11.3641 7.55386C11.0058 7.9122 10.7543 8.35742 10.6301 8.84001L0.700003 8.83997C0.313404 8.83996 0 9.15336 0 9.53996C0 9.92656 0.313398 10.24 0.699997 10.24L10.6304 10.24C10.7546 10.7222 11.006 11.1671 11.3641 11.5252C11.8907 12.0518 12.605 12.3477 13.3498 12.3477C14.0946 12.3477 14.8088 12.0518 15.3355 11.5252C15.6936 11.1671 15.945 10.7222 16.0692 10.24H17.5656C17.9522 10.24 18.2656 9.92657 18.2656 9.53997C18.2656 9.15337 17.9522 8.83997 17.5656 8.83997H16.0694ZM14.7578 9.51779L14.7576 9.52697L14.7574 9.53997C14.7574 9.54729 14.7576 9.55458 14.7578 9.56185C14.752 9.92724 14.6043 10.2764 14.3455 10.5352C14.0814 10.7993 13.7233 10.9477 13.3498 10.9477C12.9763 10.9477 12.6181 10.7993 12.3541 10.5352C12.09 10.2712 11.9416 9.913 11.9416 9.53953C11.9416 9.16606 12.09 8.80789 12.3541 8.54381C12.6181 8.27972 12.9763 8.13136 13.3498 8.13136C13.7233 8.13136 14.0814 8.27972 14.3455 8.54381C14.6045 8.80276 14.7521 9.15219 14.7578 9.51779ZM0.7 15.5721C0.313401 15.5721 0 15.8855 0 16.2721C0 16.6587 0.313401 16.9721 0.7 16.9721H2.19774C2.32195 17.4544 2.57336 17.8993 2.93151 18.2575C3.45814 18.7841 4.17241 19.08 4.91718 19.08C5.28595 19.08 5.65112 19.0073 5.99182 18.8662C6.33252 18.7251 6.64209 18.5183 6.90285 18.2575C7.16361 17.9967 7.37046 17.6872 7.51159 17.3465C7.5621 17.2245 7.60383 17.0994 7.63661 16.9722L17.5662 16.9721C17.9528 16.9721 18.2662 16.6587 18.2662 16.2721C18.2662 15.8855 17.9528 15.5721 17.5662 15.5721L7.63679 15.5722C7.60399 15.4447 7.56219 15.3194 7.51159 15.1972C7.37046 14.8565 7.16361 14.5469 6.90285 14.2861C6.64209 14.0254 6.33252 13.8185 5.99182 13.6774C5.65112 13.5363 5.28595 13.4637 4.91718 13.4637C4.17241 13.4637 3.45814 13.7595 2.93151 14.2861C2.5732 14.6445 2.32173 15.0896 2.19757 15.5721H0.7ZM6.32535 16.2718C6.32535 16.0869 6.28892 15.9038 6.21815 15.7329C6.14739 15.5621 6.04366 15.4069 5.9129 15.2761C5.78214 15.1453 5.62691 15.0416 5.45606 14.9708C5.28521 14.9001 5.1021 14.8637 4.91718 14.8637C4.54371 14.8637 4.18554 15.012 3.92146 15.2761C3.65738 15.5402 3.50902 15.8984 3.50902 16.2718C3.50902 16.6453 3.65738 17.0035 3.92146 17.2675C4.18554 17.5316 4.54371 17.68 4.91718 17.68C5.1021 17.68 5.28521 17.6436 5.45606 17.5728C5.62691 17.502 5.78214 17.3983 5.9129 17.2675C6.04366 17.1368 6.14739 16.9815 6.21815 16.8107C6.28892 16.6399 6.32535 16.4567 6.32535 16.2718Z" fill="black"/>
</svg>
