<svg width="20" height="20" viewBox="0 0 20 20" fill="none" xmlns="http://www.w3.org/2000/svg">
<path d="M9.1454 5.10856V5.10844C9.14605 4.83233 9.05316 4.60279 8.86682 4.41645C8.68047 4.23011 8.45056 4.13685 8.17369 4.13685C7.8975 4.13752 7.66789 4.2308 7.48153 4.41651C7.29524 4.60216 7.20198 4.83169 7.20198 5.10856L7.20198 10.217L7.20198 10.2171M9.1454 5.10856L8.17369 11.2388C7.88421 11.2388 7.64172 11.1407 7.44623 10.9446C7.25074 10.7484 7.15266 10.5059 7.15198 10.2171H7.20198M9.1454 5.10856V10.2171C9.1454 10.494 9.05214 10.7239 8.86579 10.9102C8.67945 11.0966 8.44992 11.1895 8.17381 11.1888H8.17369C7.89683 11.1888 7.66729 11.0956 7.48165 10.9093C7.29593 10.7229 7.20266 10.4933 7.20198 10.2171M9.1454 5.10856L7.20198 10.2171M5.56941 7.15186V7.15198V10.2171C5.56941 10.494 5.47615 10.7239 5.2898 10.9102C5.10346 11.0966 4.87393 11.1895 4.59782 11.1888H4.5977C4.32084 11.1888 4.0913 11.0956 3.90566 10.9093C3.71992 10.7229 3.62664 10.4932 3.62599 10.217V7.15198C3.62599 6.87511 3.71925 6.64558 3.90554 6.45994C4.0919 6.27422 4.32151 6.18095 4.5977 6.18027C4.87457 6.18027 5.10448 6.27353 5.29083 6.45988C5.47717 6.64622 5.57006 6.87575 5.56941 7.15186ZM11.7498 11.1888H11.7497C11.4728 11.1888 11.2433 11.0956 11.0576 10.9093C10.8719 10.7229 10.7786 10.4932 10.778 10.217V8.17369C10.778 7.89683 10.8712 7.66729 11.0575 7.48165C11.2439 7.29593 11.4735 7.20266 11.7497 7.20198C12.0265 7.20198 12.2565 7.29524 12.4428 7.48159C12.6291 7.66793 12.722 7.89746 12.7214 8.17357V8.17369V10.2171C12.7214 10.494 12.6281 10.7239 12.4418 10.9102C12.2554 11.0966 12.0259 11.1895 11.7498 11.1888ZM8.17373 16.2974H8.17369C5.90485 16.2974 3.98491 15.5106 2.41083 13.9365C0.836755 12.3625 0.05 10.4425 0.05 8.17369C0.05 5.90485 0.836755 3.98491 2.41083 2.41083C3.98491 0.836755 5.90485 0.05 8.17369 0.05C10.4425 0.05 12.3625 0.836755 13.9365 2.41083C15.5106 3.98491 16.2974 5.90485 16.2974 8.17369C16.2974 9.12199 16.1494 10.0189 15.8537 10.8647C15.5578 11.7111 15.1388 12.481 14.5966 13.1748L14.5694 13.2097L14.6007 13.241L19.6837 18.324C19.8607 18.501 19.95 18.7263 19.95 19.0038C19.95 19.2814 19.8607 19.5067 19.6837 19.6837C19.5067 19.8607 19.2814 19.95 19.0038 19.95C18.7263 19.95 18.501 19.8607 18.324 19.6837L13.241 14.6007L13.2097 14.5694L13.1749 14.5966C12.4811 15.1381 11.7111 15.5571 10.8647 15.8537C10.0189 16.1501 9.122 16.2981 8.17373 16.2974ZM8.17369 14.354C9.88965 14.354 11.3498 13.7528 12.5513 12.5513C13.7528 11.3498 14.354 9.88965 14.354 8.17369C14.354 6.45773 13.7528 4.99754 12.5513 3.79606C11.3498 2.59458 9.88965 1.99342 8.17369 1.99342C6.45773 1.99342 4.99754 2.59458 3.79606 3.79606C2.59458 4.99754 1.99342 6.45773 1.99342 8.17369C1.99342 9.88965 2.59458 11.3498 3.79606 12.5513C4.99754 13.7528 6.45773 14.354 8.17369 14.354Z" fill="#2D2C37" stroke="white" strokeWidth="0.1"/>
</svg>
