<svg width="20" height="20" viewBox="0 0 20 20" fill="none" xmlns="http://www.w3.org/2000/svg">
<path fillRule="evenodd" clipRule="evenodd" d="M2 1.4H7.23077C7.56214 1.4 7.83077 1.66863 7.83077 2V7.23077C7.83077 7.56214 7.56214 7.83077 7.23077 7.83077H2C1.66863 7.83077 1.4 7.56214 1.4 7.23077V2C1.4 1.66863 1.66863 1.4 2 1.4ZM0 2C0 0.89543 0.89543 0 2 0H7.23077C8.33534 0 9.23077 0.89543 9.23077 2V7.23077C9.23077 8.33534 8.33534 9.23077 7.23077 9.23077H2C0.89543 9.23077 0 8.33534 0 7.23077V2ZM2 12.1693H7.23077C7.56214 12.1693 7.83077 12.4379 7.83077 12.7693V18.0001C7.83077 18.3314 7.56214 18.6001 7.23077 18.6001H2C1.66863 18.6001 1.4 18.3314 1.4 18.0001V12.7693C1.4 12.4379 1.66863 12.1693 2 12.1693ZM0 12.7693C0 11.6647 0.89543 10.7693 2 10.7693H7.23077C8.33534 10.7693 9.23077 11.6647 9.23077 12.7693V18.0001C9.23077 19.1046 8.33534 20.0001 7.23077 20.0001H2C0.89543 20.0001 0 19.1046 0 18.0001V12.7693ZM17.9998 1.4H12.769C12.4377 1.4 12.169 1.66863 12.169 2V7.23077C12.169 7.56214 12.4377 7.83077 12.769 7.83077H17.9998C18.3312 7.83077 18.5998 7.56214 18.5998 7.23077V2C18.5998 1.66863 18.3312 1.4 17.9998 1.4ZM12.769 0C11.6645 0 10.769 0.89543 10.769 2V7.23077C10.769 8.33534 11.6645 9.23077 12.769 9.23077H17.9998C19.1044 9.23077 19.9998 8.33534 19.9998 7.23077V2C19.9998 0.89543 19.1044 0 17.9998 0H12.769ZM12.769 12.1693H17.9998C18.3312 12.1693 18.5998 12.4379 18.5998 12.7693V18.0001C18.5998 18.3314 18.3312 18.6001 17.9998 18.6001H12.769C12.4377 18.6001 12.169 18.3314 12.169 18.0001V12.7693C12.169 12.4379 12.4377 12.1693 12.769 12.1693ZM10.769 12.7693C10.769 11.6647 11.6645 10.7693 12.769 10.7693H17.9998C19.1044 10.7693 19.9998 11.6647 19.9998 12.7693V18.0001C19.9998 19.1046 19.1044 20.0001 17.9998 20.0001H12.769C11.6645 20.0001 10.769 19.1046 10.769 18.0001V12.7693Z" fill="black"/>
</svg>
