<svg width="16" height="16" viewBox="0 0 16 16" fill="none" xmlns="http://www.w3.org/2000/svg">
<path d="M11.3729 1.66349C11.2332 0.12216 10.1564 0.121094 9.49558 0.121094H6.50891C6.28811 0.121094 6.10891 0.300294 6.10891 0.521094C6.10891 0.741894 6.28811 0.921094 6.50891 0.921094H9.49558C10.2422 0.921094 10.5873 0.921094 10.5889 2.00909C10.5889 2.75736 10.5921 3.10616 9.49558 3.10563H6.50891C5.75798 3.10563 5.41558 3.10563 5.41558 2.01229C5.42144 1.73709 5.12491 1.53389 4.87104 1.64109C2.00598 1.83523 0.882242 3.20376 0.882242 6.49443V10.9744C0.708376 17.1488 5.53984 15.6528 10.2422 15.8544C14.3238 15.8544 15.1222 14.0651 15.1222 10.9744V6.49443C15.1222 3.29816 14.0609 1.91576 11.3729 1.66349ZM14.3238 10.9744C14.3238 13.7958 13.7372 15.0544 10.2438 15.0544H5.76224C2.27104 15.0544 1.68224 13.7958 1.68224 10.9744V6.49443C1.68224 3.41283 2.67904 2.64269 4.64384 2.46083C4.82038 3.90083 5.86251 3.90776 6.51051 3.90776H9.49717C11.0278 3.90776 11.3206 3.13336 11.3772 2.46243C13.3318 2.64643 14.3238 3.42243 14.3238 6.49443V10.9744Z" fill="#0076BD"/>
<path d="M5.22618 5.60867C5.21285 5.622 4.38832 6.44707 4.37605 6.45934L4.13978 6.22307C3.78938 5.83534 3.19632 6.36654 3.54458 6.75747C3.86085 7.0172 4.22778 7.69987 4.65818 7.30787L5.78245 6.1836C6.15632 5.8188 5.60432 5.246 5.22618 5.60867Z" fill="#0076BD"/>
<path d="M12.1484 6.06299H7.14415C6.62255 6.06512 6.61989 6.86085 7.14415 6.86299H12.1484C12.67 6.86085 12.6727 6.06512 12.1484 6.06299Z" fill="#0076BD"/>
<path d="M5.2162 8.31907L4.37567 9.1612L4.1394 8.92547C3.7698 8.58094 3.22954 9.1212 3.57407 9.4908C3.85194 9.718 4.24554 10.4028 4.6578 10.0087L5.78207 8.88494C6.15007 8.51374 5.58847 7.95054 5.2162 8.31907Z" fill="#0076BD"/>
<path d="M12.1484 8.76367H7.14415C6.62255 8.76581 6.61989 9.56154 7.14415 9.56367H12.1484C12.67 9.56154 12.6727 8.76581 12.1484 8.76367Z" fill="#0076BD"/>
<path d="M5.21613 11.0203L4.37559 11.8613L4.13933 11.6251C3.76599 11.2187 3.16706 11.8187 3.57559 12.1909C3.85293 12.4192 4.24439 13.104 4.65773 12.7099L5.78199 11.5856C6.13773 11.2155 5.58733 10.6635 5.21613 11.0203Z" fill="#0076BD"/>
<path d="M12.1484 11.4651H7.14415C6.62255 11.4672 6.61989 12.263 7.14415 12.2651H12.1484C12.67 12.263 12.6727 11.4672 12.1484 11.4651Z" fill="#0076BD"/>
</svg>
