<svg width="24" height="24" viewBox="0 0 24 24" fill="none" xmlns="http://www.w3.org/2000/svg">
<rect x="0.868241" y="0.868729" width="22.2632" height="22.2632" rx="11.1316" stroke="#0076BD" strokeWidth="1.42105"/>
<path fillRule="evenodd" clipRule="evenodd" d="M7.49967 10.1236V7.50015H10.1231V10.1236H7.49967ZM6.07861 7.26331C6.07861 6.60929 6.6088 6.0791 7.26282 6.0791H10.36C11.014 6.0791 11.5442 6.60929 11.5442 7.26331V10.3605C11.5442 11.0145 11.014 11.5447 10.36 11.5447H7.26282C6.6088 11.5447 6.07861 11.0145 6.07861 10.3605V7.26331ZM7.49982 16.5005V13.877H10.1233V16.5005H7.49982ZM6.07877 13.6402C6.07877 12.9861 6.60896 12.456 7.26298 12.456H10.3601C11.0142 12.456 11.5444 12.9861 11.5444 13.6402V16.7373C11.5444 17.3914 11.0142 17.9215 10.3601 17.9215H7.26298C6.60896 17.9215 6.07877 17.3914 6.07877 16.7373V13.6402ZM13.8759 7.50031V10.1238H16.4994V7.50031H13.8759ZM13.6391 6.07926C12.9851 6.07926 12.4549 6.60944 12.4549 7.26347V10.3606C12.4549 11.0147 12.9851 11.5448 13.6391 11.5448H16.7363C17.3903 11.5448 17.9205 11.0147 17.9205 10.3606V7.26347C17.9205 6.60944 17.3903 6.07926 16.7363 6.07926H13.6391ZM13.8759 16.5005V13.877H16.4994V16.5005H13.8759ZM12.4549 13.6402C12.4549 12.9861 12.9851 12.456 13.6391 12.456H16.7363C17.3903 12.456 17.9205 12.9861 17.9205 13.6402V16.7373C17.9205 17.3914 17.3903 17.9215 16.7363 17.9215H13.6391C12.9851 17.9215 12.4549 17.3914 12.4549 16.7373V13.6402Z" fill="#0076BD"/>
</svg>
