<svg width="20" height="20" viewBox="0 0 20 20" fill="none" xmlns="http://www.w3.org/2000/svg">
<path fillRule="evenodd" clipRule="evenodd" d="M2.84686 1.4C2.15213 1.4 1.4 2.10785 1.4 3.23417V13.3109L5.62611 8.87554L5.62646 8.87517C6.02439 8.45815 6.56761 8.21316 7.14997 8.23353C7.73129 8.25386 8.25658 8.53514 8.62872 8.97409L8.62887 8.97427L8.62908 8.97452L12.5123 13.5497L13.5538 12.3202L13.554 12.32C13.9177 11.8899 14.4286 11.6101 14.9968 11.579C15.5663 11.5478 16.104 11.7716 16.5068 12.167L16.5076 12.1677L18.6061 14.2336V3.23417C18.6061 2.10785 17.854 1.4 17.1592 1.4H2.84686ZM18.6061 16.1982L15.5261 13.1661L15.5261 13.1661C15.3798 13.0225 15.2174 12.969 15.0733 12.9769C14.9281 12.9849 14.7637 13.0575 14.6229 13.2241L14.6224 13.2246L10.0822 18.5839H17.1592C17.854 18.5839 18.6061 17.8761 18.6061 16.7498V16.1982ZM8.57417 19.9839H17.1592C18.8359 19.9839 20.0061 18.4226 20.0061 16.7498V3.23417C20.0061 1.56133 18.8359 0 17.1592 0H2.84686C1.17024 0 0 1.56133 0 3.23417V15.0602V16.7498C0 18.4226 1.17024 19.9839 2.84686 19.9839H8.56877C8.57057 19.984 8.57237 19.984 8.57417 19.9839ZM8.24739 18.5839L11.595 14.6324L7.56134 9.88002L7.56098 9.87959C7.41708 9.70977 7.24892 9.63785 7.10103 9.63268C6.95399 9.62753 6.78709 9.68682 6.63932 9.84167L1.4 15.3404V16.7498C1.4 17.8761 2.15213 18.5839 2.84686 18.5839H8.24739ZM13.5812 4.779C13.1843 4.779 12.85 5.1062 12.85 5.5254C12.85 5.94459 13.1843 6.2718 13.5812 6.2718C13.9781 6.2718 14.3124 5.94459 14.3124 5.5254C14.3124 5.1062 13.9781 4.779 13.5812 4.779ZM11.45 5.5254C11.45 4.34695 12.3972 3.379 13.5812 3.379C14.7652 3.379 15.7124 4.34695 15.7124 5.5254C15.7124 6.70385 14.7652 7.67179 13.5812 7.67179C12.3972 7.67179 11.45 6.70385 11.45 5.5254Z" fill="#0076BD"/>
</svg>
