<svg width="25" height="25" viewBox="0 0 25 25" fill="none" xmlns="http://www.w3.org/2000/svg">
<path d="M21.6428 24.5H3.02376C2.27258 24.4991 1.55241 24.2004 1.02124 23.6692C0.490073 23.138 0.191287 22.4179 0.19043 21.6667L0.19043 10.3333C0.191287 9.58215 0.490073 8.86198 1.02124 8.33081C1.55241 7.79964 2.27258 7.50086 3.02376 7.5H11.119C11.2263 7.5 11.3293 7.54264 11.4052 7.61855C11.4811 7.69446 11.5238 7.79741 11.5238 7.90476C11.5238 8.01211 11.4811 8.11506 11.4052 8.19097C11.3293 8.26688 11.2263 8.30952 11.119 8.30952H3.02376C2.48721 8.31017 1.97282 8.52359 1.59342 8.90299C1.21402 9.28239 1.0006 9.79678 0.999953 10.3333V21.6667C1.0006 22.2032 1.21402 22.7176 1.59342 23.097C1.97282 23.4764 2.48721 23.6898 3.02376 23.6905H21.6428C22.1794 23.6898 22.6938 23.4764 23.0731 23.097C23.4525 22.7176 23.666 22.2032 23.6666 21.6667V10.3333C23.667 9.97813 23.5737 9.62911 23.3962 9.32143C23.3478 9.22892 23.3371 9.1213 23.3662 9.02104C23.3952 8.92077 23.4619 8.83563 23.5523 8.78338C23.6427 8.73114 23.7498 8.71583 23.8512 8.74067C23.9526 8.76551 24.0405 8.82856 24.0965 8.91667C24.3454 9.34729 24.4764 9.83594 24.4761 10.3333V21.6667C24.4753 22.4179 24.1765 23.138 23.6453 23.6692C23.1142 24.2004 22.394 24.4991 21.6428 24.5Z" fill="#5B5967"/>
<path d="M12.3332 16.4047C11.7994 16.4236 11.2769 16.2478 10.8631 15.9101L1.17068 9.04454C1.12685 9.014 1.0895 8.97509 1.06079 8.93005C1.03207 8.88501 1.01255 8.83473 1.00335 8.7821C0.994161 8.72948 0.995474 8.67556 1.00722 8.62345C1.01896 8.57134 1.0409 8.52207 1.07178 8.47848C1.10266 8.43489 1.14186 8.39784 1.18712 8.36947C1.23238 8.34111 1.28281 8.32198 1.3355 8.31319C1.38819 8.3044 1.4421 8.30614 1.49412 8.31828C1.54614 8.33043 1.59524 8.35275 1.63859 8.38397L11.3529 15.2649C11.3715 15.2782 11.3889 15.2929 11.4051 15.309C11.6707 15.5115 11.9997 15.6129 12.3332 15.5952C12.4406 15.5952 12.5435 15.6378 12.6194 15.7138C12.6953 15.7897 12.738 15.8926 12.738 16C12.738 16.1073 12.6953 16.2103 12.6194 16.2862C12.5435 16.3621 12.4406 16.4047 12.3332 16.4047Z" fill="#5B5967"/>
<path d="M12.3332 16.405C12.2259 16.405 12.1229 16.3624 12.047 16.2865C11.9711 16.2106 11.9285 16.1076 11.9285 16.0003C11.9285 15.8929 11.9711 15.79 12.047 15.7141C12.1229 15.6381 12.2259 15.5955 12.3332 15.5955C12.6683 15.613 12.9986 15.5099 13.2642 15.3049C13.279 15.2903 13.2948 15.2768 13.3115 15.2644L16.1683 13.2406C16.2117 13.2098 16.2607 13.1879 16.3126 13.1761C16.3644 13.1643 16.4181 13.1628 16.4705 13.1718C16.5229 13.1807 16.573 13.1999 16.618 13.2282C16.663 13.2565 16.702 13.2934 16.7328 13.3367C16.7635 13.3801 16.7854 13.4291 16.7973 13.4809C16.8091 13.5328 16.8105 13.5864 16.8016 13.6389C16.7927 13.6913 16.7735 13.7414 16.7452 13.7864C16.7169 13.8314 16.68 13.8704 16.6367 13.9012L13.8013 15.9096C13.3881 16.2471 12.8664 16.4232 12.3332 16.405Z" fill="#5B5967"/>
<path d="M1.40455 23.6905C1.32451 23.6905 1.24627 23.6667 1.17973 23.6222C1.11318 23.5778 1.06131 23.5145 1.03068 23.4406C1.00006 23.3666 0.99204 23.2853 1.00765 23.2068C1.02326 23.1283 1.0618 23.0562 1.11839 22.9995L9.61839 14.4995C9.69473 14.4258 9.79697 14.385 9.9031 14.3859C10.0092 14.3869 10.1107 14.4294 10.1858 14.5045C10.2608 14.5795 10.3034 14.681 10.3043 14.7872C10.3052 14.8933 10.2645 14.9955 10.1907 15.0719L1.69072 23.5719C1.61483 23.6478 1.51189 23.6905 1.40455 23.6905Z" fill="#5B5967"/>
<path d="M23.262 23.6905C23.1546 23.6905 23.0517 23.6478 22.9758 23.5719L14.4758 15.0719C14.4021 14.9955 14.3613 14.8933 14.3622 14.7872C14.3631 14.681 14.4057 14.5795 14.4807 14.5045C14.5558 14.4294 14.6573 14.3869 14.7634 14.3859C14.8696 14.385 14.9718 14.4258 15.0481 14.4995L23.5481 22.9995C23.6047 23.0562 23.6433 23.1283 23.6589 23.2068C23.6745 23.2853 23.6665 23.3666 23.6358 23.4406C23.6052 23.5145 23.5533 23.5778 23.4868 23.6222C23.4203 23.6667 23.342 23.6905 23.262 23.6905Z" fill="#5B5967"/>
<path d="M22.4424 2.37326C17.9488 -1.9707 10.5121 1.17989 10.5092 7.30807C10.5092 8.533 10.8301 9.72755 11.4414 10.7824L10.4502 14.3836L14.1525 13.4181C18.7723 15.9136 24.4738 12.6 24.4762 7.31157C24.4762 5.45547 23.7515 3.70865 22.4336 2.39606L22.4424 2.37326ZM23.3085 7.29229C23.305 11.7531 18.4082 14.539 14.5353 12.2622L14.3249 12.1371L12.1333 12.7069L12.7206 10.5767L12.581 10.3575C10.1708 6.52086 12.9398 1.50657 17.5053 1.50657C19.0563 1.50657 20.5121 2.11144 21.6084 3.20722C22.7042 4.29365 23.3085 5.74943 23.3085 7.29229Z" fill="#5B5967"/>
<path d="M20.6815 8.71888L20.6763 8.76271C19.3911 8.12219 19.2567 8.03686 19.0907 8.28583C18.9756 8.45823 18.6402 8.8492 18.5391 8.96492C18.4368 9.07888 18.3351 9.08764 18.1615 9.00875C17.9862 8.92109 17.4234 8.73699 16.7572 8.14089C16.2382 7.67628 15.8899 7.10648 15.787 6.93115C15.6158 6.63544 15.9741 6.59336 16.3002 5.97622C16.3586 5.85349 16.3288 5.75706 16.2855 5.66998C16.2417 5.58232 15.8928 4.72323 15.7467 4.38076C15.6065 4.03946 15.4621 4.08271 15.354 4.08271C15.0174 4.05349 14.7713 4.05816 14.5545 4.28375C13.6113 5.3205 13.8491 6.38998 14.6562 7.52725C16.2423 9.6031 17.0874 9.98531 18.6326 10.516C19.0498 10.6486 19.4303 10.6299 19.7313 10.5867C20.0667 10.5335 20.7639 10.1653 20.9094 9.75329C21.0585 9.34128 21.0585 8.9994 21.0146 8.9205C20.9714 8.84161 20.8568 8.79777 20.6815 8.71888Z" fill="#5B5967"/>
</svg>
