<svg width="20" height="20" viewBox="0 0 20 20" fill="none" xmlns="http://www.w3.org/2000/svg">
<path d="M1.70937 10.6156V16.55C1.70937 17.3684 2.37375 18.0344 3.19062 18.0344H16.8094C17.6259 18.0344 18.2906 17.3684 18.2906 16.55V10.6156C18.9219 10.3906 19.375 9.78435 19.375 9.07498V6.22185C19.375 5.31248 18.6375 4.57498 17.7344 4.57498H13.4906V3.9531C13.4906 2.74998 12.5125 1.77185 11.3094 1.77185H8.69063C7.4875 1.77185 6.50938 2.74998 6.50938 3.9531V4.57498H2.26562C1.3625 4.57498 0.625 5.31248 0.625 6.22185V9.07498C0.625 9.78435 1.07812 10.3906 1.70937 10.6156ZM16.8094 17.4094H3.19062C2.71844 17.4094 2.33437 17.024 2.33437 16.55V10.7156H8.4125V12.5344C8.4125 13.0906 8.8625 13.5406 9.41875 13.5406H10.5813C11.1375 13.5406 11.5875 13.0906 11.5875 12.5344V10.7156H17.6656V16.55C17.6656 17.024 17.2816 17.4094 16.8094 17.4094ZM11.6594 4.57498H7.71563V3.9531C7.71563 3.4156 8.15312 2.9781 8.69063 2.9781H11.3094C11.8469 2.9781 12.2844 3.4156 12.2844 3.9531V4.57498H11.6594ZM1.25 6.22185C1.25 5.65935 1.70625 5.19998 2.26562 5.19998H17.7344C18.2938 5.19998 18.75 5.65935 18.75 6.22185V9.07498C18.75 9.5656 18.4 9.97498 17.9375 10.0687C17.9312 10.0719 17.9219 10.0719 17.9125 10.0719C17.8563 10.0844 17.7938 10.0906 17.7344 10.0906H2.26562C2.20625 10.0906 2.14375 10.0844 2.0875 10.0719C2.07812 10.0719 2.06875 10.0719 2.0625 10.0687C1.6 9.97498 1.25 9.5656 1.25 9.07498V6.22185Z" fill="#5B5967"/>
</svg>
