<svg width="687" height="235" viewBox="0 0 687 235" fill="none" xmlns="http://www.w3.org/2000/svg">
<path d="M56 0V211H687" stroke="#ECECEC"/>
<path d="M92 163.377V210H666V20L522.5 48.5752L379 94.5L239.5 112L92 163.377Z" fill="url(#paint0_linear_1886_32685)"/>
<path d="M92.5 164L239.5 112.5L379 95.5L523.5 48.5L665.5 21" stroke="#57D974"/>
<circle cx="95.5" cy="163.5" r="3.5" fill="white" stroke="#57D974" strokeWidth="2"/>
<circle cx="239.5" cy="112.5" r="3.5" fill="white" stroke="#57D974" strokeWidth="2"/>
<circle cx="381.5" cy="94.5" r="3.5" fill="white" stroke="#57D974" strokeWidth="2"/>
<circle cx="523.5" cy="48.5" r="3.5" fill="white" stroke="#57D974" strokeWidth="2"/>
<circle cx="665.5" cy="21.5" r="3.5" fill="white" stroke="#57D974" strokeWidth="2"/>
<path d="M92 171.475V210H666V104L524 90L380 112.5L239.5 177L92 171.475Z" fill="url(#paint1_linear_1886_32685)"/>
<path d="M93 172.5L239.5 177.5L380 112L523.5 91L665.5 104" stroke="#038EE2"/>
<circle cx="96.5" cy="173.5" r="3.5" fill="white" stroke="#038EE2" strokeWidth="2"/>
<circle cx="239.5" cy="177.5" r="3.5" fill="white" stroke="#038EE2" strokeWidth="2"/>
<circle cx="381.5" cy="111.5" r="3.5" fill="white" stroke="#038EE2" strokeWidth="2"/>
<circle cx="523.5" cy="90.5" r="3.5" fill="white" stroke="#038EE2" strokeWidth="2"/>
<circle cx="665.5" cy="103.5" r="3.5" fill="white" stroke="#038EE2" strokeWidth="2"/>
<path d="M78.0597 232V231.233L80.9403 228.08C81.2784 227.71 81.5568 227.389 81.7756 227.116C81.9943 226.841 82.1563 226.582 82.2614 226.341C82.3693 226.097 82.4233 225.841 82.4233 225.574C82.4233 225.267 82.3494 225.001 82.2017 224.777C82.0568 224.553 81.858 224.379 81.6051 224.257C81.3523 224.135 81.0682 224.074 80.7528 224.074C80.4176 224.074 80.125 224.143 79.875 224.283C79.6278 224.419 79.4361 224.611 79.2997 224.858C79.1662 225.105 79.0994 225.395 79.0994 225.727H78.0938C78.0938 225.216 78.2116 224.767 78.4474 224.381C78.6832 223.994 79.0043 223.693 79.4105 223.477C79.8196 223.261 80.2784 223.153 80.7869 223.153C81.2983 223.153 81.7514 223.261 82.1463 223.477C82.5412 223.693 82.8509 223.984 83.0753 224.351C83.2997 224.717 83.4119 225.125 83.4119 225.574C83.4119 225.895 83.3537 226.209 83.2372 226.516C83.1236 226.82 82.9247 227.159 82.6406 227.534C82.3594 227.906 81.9688 228.361 81.4688 228.898L79.5085 230.994V231.062H83.5653V232H78.0597ZM88.0526 232.119C87.5526 232.119 87.1023 232.02 86.7017 231.821C86.3011 231.622 85.9801 231.349 85.7386 231.003C85.4972 230.656 85.3651 230.261 85.3423 229.818H86.3651C86.4048 230.213 86.5838 230.54 86.902 230.798C87.223 231.054 87.6065 231.182 88.0526 231.182C88.4105 231.182 88.7287 231.098 89.0071 230.93C89.2884 230.763 89.5085 230.533 89.6676 230.24C89.8295 229.945 89.9105 229.611 89.9105 229.239C89.9105 228.858 89.8267 228.518 89.6591 228.22C89.4943 227.919 89.267 227.682 88.9773 227.509C88.6875 227.335 88.3565 227.247 87.9844 227.244C87.7173 227.241 87.4432 227.283 87.1619 227.368C86.8807 227.45 86.6491 227.557 86.4673 227.688L85.4787 227.568L86.0071 223.273H90.5412V224.21H86.8935L86.5866 226.784H86.6378C86.8168 226.642 87.0412 226.524 87.3111 226.43C87.581 226.337 87.8622 226.29 88.1548 226.29C88.6889 226.29 89.1648 226.418 89.5824 226.673C90.0028 226.926 90.3324 227.273 90.571 227.713C90.8125 228.153 90.9332 228.656 90.9332 229.222C90.9332 229.778 90.8082 230.276 90.5582 230.713C90.3111 231.148 89.9702 231.491 89.5355 231.744C89.1009 231.994 88.6065 232.119 88.0526 232.119ZM96.1545 223.273H97.4158L100.382 230.517H100.484L103.45 223.273H104.711V232H103.723V225.369H103.637L100.91 232H99.9556L97.2283 225.369H97.1431V232H96.1545V223.273ZM108.62 232.153C108.205 232.153 107.829 232.075 107.491 231.919C107.153 231.76 106.884 231.531 106.685 231.233C106.487 230.932 106.387 230.568 106.387 230.142C106.387 229.767 106.461 229.463 106.609 229.23C106.756 228.994 106.954 228.81 107.201 228.676C107.448 228.543 107.721 228.443 108.019 228.378C108.32 228.31 108.623 228.256 108.927 228.216C109.325 228.165 109.647 228.126 109.894 228.101C110.144 228.072 110.326 228.026 110.44 227.96C110.556 227.895 110.614 227.781 110.614 227.619V227.585C110.614 227.165 110.499 226.838 110.269 226.605C110.042 226.372 109.697 226.256 109.234 226.256C108.754 226.256 108.377 226.361 108.104 226.571C107.832 226.781 107.64 227.006 107.529 227.244L106.575 226.903C106.745 226.506 106.972 226.196 107.256 225.974C107.543 225.75 107.856 225.594 108.194 225.506C108.535 225.415 108.87 225.369 109.2 225.369C109.41 225.369 109.651 225.395 109.924 225.446C110.2 225.494 110.465 225.595 110.721 225.749C110.979 225.902 111.194 226.134 111.364 226.443C111.535 226.753 111.62 227.168 111.62 227.688V232H110.614V231.114H110.563C110.495 231.256 110.381 231.408 110.222 231.57C110.063 231.732 109.852 231.869 109.587 231.983C109.323 232.097 109.001 232.153 108.62 232.153ZM108.773 231.25C109.171 231.25 109.506 231.172 109.779 231.016C110.055 230.859 110.262 230.658 110.401 230.411C110.543 230.163 110.614 229.903 110.614 229.631V228.71C110.572 228.761 110.478 228.808 110.333 228.851C110.191 228.891 110.026 228.926 109.839 228.957C109.654 228.986 109.474 229.011 109.298 229.034C109.124 229.054 108.984 229.071 108.876 229.085C108.614 229.119 108.37 229.175 108.143 229.251C107.918 229.325 107.737 229.437 107.597 229.588C107.461 229.736 107.393 229.937 107.393 230.193C107.393 230.543 107.522 230.807 107.781 230.986C108.042 231.162 108.373 231.25 108.773 231.25ZM113.456 232V225.455H114.427V226.443H114.495C114.615 226.119 114.831 225.857 115.143 225.655C115.456 225.453 115.808 225.352 116.2 225.352C116.274 225.352 116.366 225.354 116.477 225.357C116.588 225.359 116.672 225.364 116.728 225.369V226.392C116.694 226.384 116.616 226.371 116.494 226.354C116.375 226.334 116.248 226.324 116.115 226.324C115.797 226.324 115.512 226.391 115.262 226.524C115.015 226.655 114.819 226.837 114.674 227.07C114.532 227.3 114.461 227.562 114.461 227.858V232H113.456Z" fill="#ACABB3"/>
<path d="M220.622 232V231.233L223.503 228.08C223.841 227.71 224.119 227.389 224.338 227.116C224.557 226.841 224.719 226.582 224.824 226.341C224.932 226.097 224.986 225.841 224.986 225.574C224.986 225.267 224.912 225.001 224.764 224.777C224.619 224.553 224.42 224.379 224.168 224.257C223.915 224.135 223.631 224.074 223.315 224.074C222.98 224.074 222.688 224.143 222.438 224.283C222.19 224.419 221.999 224.611 221.862 224.858C221.729 225.105 221.662 225.395 221.662 225.727H220.656C220.656 225.216 220.774 224.767 221.01 224.381C221.246 223.994 221.567 223.693 221.973 223.477C222.382 223.261 222.841 223.153 223.349 223.153C223.861 223.153 224.314 223.261 224.709 223.477C225.104 223.693 225.413 223.984 225.638 224.351C225.862 224.717 225.974 225.125 225.974 225.574C225.974 225.895 225.916 226.209 225.8 226.516C225.686 226.82 225.487 227.159 225.203 227.534C224.922 227.906 224.531 228.361 224.031 228.898L222.071 230.994V231.062H226.128V232H220.622ZM230.786 232.119C230.428 232.114 230.07 232.045 229.712 231.915C229.354 231.784 229.027 231.564 228.732 231.254C228.436 230.942 228.199 230.52 228.02 229.989C227.841 229.455 227.751 228.784 227.751 227.977C227.751 227.205 227.824 226.52 227.969 225.923C228.114 225.324 228.324 224.82 228.599 224.411C228.875 223.999 229.207 223.686 229.597 223.473C229.989 223.26 230.43 223.153 230.922 223.153C231.411 223.153 231.845 223.251 232.226 223.447C232.609 223.641 232.922 223.911 233.163 224.257C233.405 224.604 233.561 225.003 233.632 225.455H232.592C232.496 225.062 232.308 224.737 232.03 224.479C231.751 224.22 231.382 224.091 230.922 224.091C230.246 224.091 229.713 224.385 229.324 224.973C228.938 225.561 228.743 226.386 228.74 227.449H228.808C228.967 227.207 229.156 227.001 229.375 226.831C229.597 226.658 229.841 226.524 230.108 226.43C230.375 226.337 230.658 226.29 230.956 226.29C231.456 226.29 231.913 226.415 232.328 226.665C232.743 226.912 233.075 227.254 233.325 227.692C233.575 228.126 233.7 228.625 233.7 229.188C233.7 229.727 233.58 230.222 233.338 230.67C233.097 231.116 232.757 231.472 232.32 231.736C231.885 231.997 231.374 232.125 230.786 232.119ZM230.786 231.182C231.143 231.182 231.464 231.092 231.749 230.913C232.036 230.734 232.261 230.494 232.426 230.193C232.594 229.892 232.678 229.557 232.678 229.188C232.678 228.827 232.597 228.499 232.435 228.203C232.276 227.905 232.055 227.668 231.774 227.491C231.496 227.315 231.178 227.227 230.82 227.227C230.55 227.227 230.298 227.281 230.065 227.389C229.832 227.494 229.628 227.639 229.452 227.824C229.278 228.009 229.142 228.22 229.043 228.459C228.943 228.695 228.893 228.943 228.893 229.205C228.893 229.551 228.974 229.875 229.136 230.176C229.301 230.477 229.526 230.72 229.81 230.905C230.097 231.089 230.422 231.182 230.786 231.182ZM238.904 223.273H240.166L243.132 230.517H243.234L246.2 223.273H247.461V232H246.473V225.369H246.387L243.66 232H242.706L239.978 225.369H239.893V232H238.904V223.273ZM251.37 232.153C250.955 232.153 250.579 232.075 250.241 231.919C249.903 231.76 249.634 231.531 249.435 231.233C249.237 230.932 249.137 230.568 249.137 230.142C249.137 229.767 249.211 229.463 249.359 229.23C249.506 228.994 249.704 228.81 249.951 228.676C250.198 228.543 250.471 228.443 250.769 228.378C251.07 228.31 251.373 228.256 251.677 228.216C252.075 228.165 252.397 228.126 252.644 228.101C252.894 228.072 253.076 228.026 253.19 227.96C253.306 227.895 253.364 227.781 253.364 227.619V227.585C253.364 227.165 253.249 226.838 253.019 226.605C252.792 226.372 252.447 226.256 251.984 226.256C251.504 226.256 251.127 226.361 250.854 226.571C250.582 226.781 250.39 227.006 250.279 227.244L249.325 226.903C249.495 226.506 249.722 226.196 250.006 225.974C250.293 225.75 250.606 225.594 250.944 225.506C251.285 225.415 251.62 225.369 251.95 225.369C252.16 225.369 252.401 225.395 252.674 225.446C252.95 225.494 253.215 225.595 253.471 225.749C253.729 225.902 253.944 226.134 254.114 226.443C254.285 226.753 254.37 227.168 254.37 227.688V232H253.364V231.114H253.313C253.245 231.256 253.131 231.408 252.972 231.57C252.813 231.732 252.602 231.869 252.337 231.983C252.073 232.097 251.751 232.153 251.37 232.153ZM251.523 231.25C251.921 231.25 252.256 231.172 252.529 231.016C252.805 230.859 253.012 230.658 253.151 230.411C253.293 230.163 253.364 229.903 253.364 229.631V228.71C253.322 228.761 253.228 228.808 253.083 228.851C252.941 228.891 252.776 228.926 252.589 228.957C252.404 228.986 252.224 229.011 252.048 229.034C251.874 229.054 251.734 229.071 251.626 229.085C251.364 229.119 251.12 229.175 250.893 229.251C250.668 229.325 250.487 229.437 250.347 229.588C250.211 229.736 250.143 229.937 250.143 230.193C250.143 230.543 250.272 230.807 250.531 230.986C250.792 231.162 251.123 231.25 251.523 231.25ZM256.206 232V225.455H257.177V226.443H257.245C257.365 226.119 257.581 225.857 257.893 225.655C258.206 225.453 258.558 225.352 258.95 225.352C259.024 225.352 259.116 225.354 259.227 225.357C259.338 225.359 259.422 225.364 259.478 225.369V226.392C259.444 226.384 259.366 226.371 259.244 226.354C259.125 226.334 258.998 226.324 258.865 226.324C258.547 226.324 258.262 226.391 258.012 226.524C257.765 226.655 257.569 226.837 257.424 227.07C257.282 227.3 257.211 227.562 257.211 227.858V232H256.206Z" fill="#ACABB3"/>
<path d="M363.005 232V231.233L365.886 228.08C366.224 227.71 366.502 227.389 366.721 227.116C366.94 226.841 367.102 226.582 367.207 226.341C367.315 226.097 367.369 225.841 367.369 225.574C367.369 225.267 367.295 225.001 367.147 224.777C367.002 224.553 366.803 224.379 366.55 224.257C366.298 224.135 366.013 224.074 365.698 224.074C365.363 224.074 365.07 224.143 364.82 224.283C364.573 224.419 364.381 224.611 364.245 224.858C364.112 225.105 364.045 225.395 364.045 225.727H363.039C363.039 225.216 363.157 224.767 363.393 224.381C363.629 223.994 363.95 223.693 364.356 223.477C364.765 223.261 365.224 223.153 365.732 223.153C366.244 223.153 366.697 223.261 367.092 223.477C367.487 223.693 367.796 223.984 368.021 224.351C368.245 224.717 368.357 225.125 368.357 225.574C368.357 225.895 368.299 226.209 368.183 226.516C368.069 226.82 367.87 227.159 367.586 227.534C367.305 227.906 366.914 228.361 366.414 228.898L364.454 230.994V231.062H368.511V232H363.005ZM370.543 232L374.447 224.278V224.21H369.947V223.273H375.538V224.261L371.651 232H370.543ZM380.654 223.273H381.916L384.882 230.517H384.984L387.95 223.273H389.211V232H388.223V225.369H388.137L385.41 232H384.456L381.728 225.369H381.643V232H380.654V223.273ZM393.12 232.153C392.705 232.153 392.329 232.075 391.991 231.919C391.653 231.76 391.384 231.531 391.185 231.233C390.987 230.932 390.887 230.568 390.887 230.142C390.887 229.767 390.961 229.463 391.109 229.23C391.256 228.994 391.454 228.81 391.701 228.676C391.948 228.543 392.221 228.443 392.519 228.378C392.82 228.31 393.123 228.256 393.427 228.216C393.825 228.165 394.147 228.126 394.394 228.101C394.644 228.072 394.826 228.026 394.94 227.96C395.056 227.895 395.114 227.781 395.114 227.619V227.585C395.114 227.165 394.999 226.838 394.769 226.605C394.542 226.372 394.197 226.256 393.734 226.256C393.254 226.256 392.877 226.361 392.604 226.571C392.332 226.781 392.14 227.006 392.029 227.244L391.075 226.903C391.245 226.506 391.472 226.196 391.756 225.974C392.043 225.75 392.356 225.594 392.694 225.506C393.035 225.415 393.37 225.369 393.7 225.369C393.91 225.369 394.151 225.395 394.424 225.446C394.7 225.494 394.965 225.595 395.221 225.749C395.479 225.902 395.694 226.134 395.864 226.443C396.035 226.753 396.12 227.168 396.12 227.688V232H395.114V231.114H395.063C394.995 231.256 394.881 231.408 394.722 231.57C394.563 231.732 394.352 231.869 394.087 231.983C393.823 232.097 393.501 232.153 393.12 232.153ZM393.273 231.25C393.671 231.25 394.006 231.172 394.279 231.016C394.555 230.859 394.762 230.658 394.901 230.411C395.043 230.163 395.114 229.903 395.114 229.631V228.71C395.072 228.761 394.978 228.808 394.833 228.851C394.691 228.891 394.526 228.926 394.339 228.957C394.154 228.986 393.974 229.011 393.798 229.034C393.624 229.054 393.484 229.071 393.376 229.085C393.114 229.119 392.87 229.175 392.643 229.251C392.418 229.325 392.237 229.437 392.097 229.588C391.961 229.736 391.893 229.937 391.893 230.193C391.893 230.543 392.022 230.807 392.281 230.986C392.542 231.162 392.873 231.25 393.273 231.25ZM397.956 232V225.455H398.927V226.443H398.995C399.115 226.119 399.331 225.857 399.643 225.655C399.956 225.453 400.308 225.352 400.7 225.352C400.774 225.352 400.866 225.354 400.977 225.357C401.088 225.359 401.172 225.364 401.228 225.369V226.392C401.194 226.384 401.116 226.371 400.994 226.354C400.875 226.334 400.748 226.324 400.615 226.324C400.297 226.324 400.012 226.391 399.762 226.524C399.515 226.655 399.319 226.837 399.174 227.07C399.032 227.3 398.961 227.562 398.961 227.858V232H397.956Z" fill="#ACABB3"/>
<path d="M504.216 232V231.233L507.097 228.08C507.435 227.71 507.713 227.389 507.932 227.116C508.151 226.841 508.313 226.582 508.418 226.341C508.526 226.097 508.58 225.841 508.58 225.574C508.58 225.267 508.506 225.001 508.358 224.777C508.213 224.553 508.014 224.379 507.761 224.257C507.509 224.135 507.224 224.074 506.909 224.074C506.574 224.074 506.281 224.143 506.031 224.283C505.784 224.419 505.592 224.611 505.456 224.858C505.322 225.105 505.256 225.395 505.256 225.727H504.25C504.25 225.216 504.368 224.767 504.604 224.381C504.839 223.994 505.161 223.693 505.567 223.477C505.976 223.261 506.435 223.153 506.943 223.153C507.455 223.153 507.908 223.261 508.303 223.477C508.697 223.693 509.007 223.984 509.232 224.351C509.456 224.717 509.568 225.125 509.568 225.574C509.568 225.895 509.51 226.209 509.393 226.516C509.28 226.82 509.081 227.159 508.797 227.534C508.516 227.906 508.125 228.361 507.625 228.898L505.665 230.994V231.062H509.722V232H504.216ZM514.277 232.119C513.692 232.119 513.175 232.016 512.726 231.808C512.28 231.598 511.932 231.31 511.682 230.943C511.432 230.574 511.308 230.153 511.311 229.682C511.308 229.312 511.381 228.972 511.528 228.659C511.676 228.344 511.878 228.081 512.134 227.871C512.392 227.658 512.68 227.523 512.999 227.466V227.415C512.581 227.307 512.249 227.072 512.001 226.712C511.754 226.348 511.632 225.935 511.635 225.472C511.632 225.028 511.744 224.632 511.972 224.283C512.199 223.933 512.511 223.658 512.909 223.456C513.31 223.254 513.766 223.153 514.277 223.153C514.783 223.153 515.234 223.254 515.632 223.456C516.03 223.658 516.342 223.933 516.57 224.283C516.8 224.632 516.916 225.028 516.919 225.472C516.916 225.935 516.79 226.348 516.54 226.712C516.293 227.072 515.964 227.307 515.555 227.415V227.466C515.871 227.523 516.155 227.658 516.408 227.871C516.661 228.081 516.862 228.344 517.013 228.659C517.163 228.972 517.24 229.312 517.243 229.682C517.24 230.153 517.112 230.574 516.859 230.943C516.609 231.31 516.261 231.598 515.815 231.808C515.372 232.016 514.859 232.119 514.277 232.119ZM514.277 231.182C514.672 231.182 515.013 231.118 515.3 230.99C515.587 230.862 515.808 230.682 515.964 230.449C516.121 230.216 516.2 229.943 516.203 229.631C516.2 229.301 516.115 229.01 515.947 228.757C515.78 228.504 515.551 228.305 515.261 228.161C514.974 228.016 514.646 227.943 514.277 227.943C513.905 227.943 513.572 228.016 513.28 228.161C512.99 228.305 512.761 228.504 512.594 228.757C512.429 229.01 512.348 229.301 512.351 229.631C512.348 229.943 512.423 230.216 512.577 230.449C512.733 230.682 512.956 230.862 513.246 230.99C513.536 231.118 513.879 231.182 514.277 231.182ZM514.277 227.04C514.589 227.04 514.866 226.977 515.108 226.852C515.352 226.727 515.544 226.553 515.683 226.328C515.822 226.104 515.893 225.841 515.896 225.54C515.893 225.244 515.824 224.987 515.688 224.768C515.551 224.547 515.362 224.376 515.121 224.257C514.879 224.135 514.598 224.074 514.277 224.074C513.95 224.074 513.665 224.135 513.42 224.257C513.176 224.376 512.987 224.547 512.854 224.768C512.72 224.987 512.655 225.244 512.658 225.54C512.655 225.841 512.722 226.104 512.858 226.328C512.997 226.553 513.189 226.727 513.433 226.852C513.678 226.977 513.959 227.04 514.277 227.04ZM522.404 223.273H523.666L526.632 230.517H526.734L529.7 223.273H530.961V232H529.973V225.369H529.887L527.16 232H526.206L523.478 225.369H523.393V232H522.404V223.273ZM534.87 232.153C534.455 232.153 534.079 232.075 533.741 231.919C533.403 231.76 533.134 231.531 532.935 231.233C532.737 230.932 532.637 230.568 532.637 230.142C532.637 229.767 532.711 229.463 532.859 229.23C533.006 228.994 533.204 228.81 533.451 228.676C533.698 228.543 533.971 228.443 534.269 228.378C534.57 228.31 534.873 228.256 535.177 228.216C535.575 228.165 535.897 228.126 536.144 228.101C536.394 228.072 536.576 228.026 536.69 227.96C536.806 227.895 536.864 227.781 536.864 227.619V227.585C536.864 227.165 536.749 226.838 536.519 226.605C536.292 226.372 535.947 226.256 535.484 226.256C535.004 226.256 534.627 226.361 534.354 226.571C534.082 226.781 533.89 227.006 533.779 227.244L532.825 226.903C532.995 226.506 533.222 226.196 533.506 225.974C533.793 225.75 534.106 225.594 534.444 225.506C534.785 225.415 535.12 225.369 535.45 225.369C535.66 225.369 535.901 225.395 536.174 225.446C536.45 225.494 536.715 225.595 536.971 225.749C537.229 225.902 537.444 226.134 537.614 226.443C537.785 226.753 537.87 227.168 537.87 227.688V232H536.864V231.114H536.813C536.745 231.256 536.631 231.408 536.472 231.57C536.313 231.732 536.102 231.869 535.837 231.983C535.573 232.097 535.251 232.153 534.87 232.153ZM535.023 231.25C535.421 231.25 535.756 231.172 536.029 231.016C536.305 230.859 536.512 230.658 536.651 230.411C536.793 230.163 536.864 229.903 536.864 229.631V228.71C536.822 228.761 536.728 228.808 536.583 228.851C536.441 228.891 536.276 228.926 536.089 228.957C535.904 228.986 535.724 229.011 535.548 229.034C535.374 229.054 535.234 229.071 535.126 229.085C534.864 229.119 534.62 229.175 534.393 229.251C534.168 229.325 533.987 229.437 533.847 229.588C533.711 229.736 533.643 229.937 533.643 230.193C533.643 230.543 533.772 230.807 534.031 230.986C534.292 231.162 534.623 231.25 535.023 231.25ZM539.706 232V225.455H540.677V226.443H540.745C540.865 226.119 541.081 225.857 541.393 225.655C541.706 225.453 542.058 225.352 542.45 225.352C542.524 225.352 542.616 225.354 542.727 225.357C542.838 225.359 542.922 225.364 542.978 225.369V226.392C542.944 226.384 542.866 226.371 542.744 226.354C542.625 226.334 542.498 226.324 542.365 226.324C542.047 226.324 541.762 226.391 541.512 226.524C541.265 226.655 541.069 226.837 540.924 227.07C540.782 227.3 540.711 227.562 540.711 227.858V232H539.706Z" fill="#ACABB3"/>
<path d="M646.872 232V231.233L649.753 228.08C650.091 227.71 650.369 227.389 650.588 227.116C650.807 226.841 650.969 226.582 651.074 226.341C651.182 226.097 651.236 225.841 651.236 225.574C651.236 225.267 651.162 225.001 651.014 224.777C650.869 224.553 650.67 224.379 650.418 224.257C650.165 224.135 649.881 224.074 649.565 224.074C649.23 224.074 648.938 224.143 648.688 224.283C648.44 224.419 648.249 224.611 648.112 224.858C647.979 225.105 647.912 225.395 647.912 225.727H646.906C646.906 225.216 647.024 224.767 647.26 224.381C647.496 223.994 647.817 223.693 648.223 223.477C648.632 223.261 649.091 223.153 649.599 223.153C650.111 223.153 650.564 223.261 650.959 223.477C651.354 223.693 651.663 223.984 651.888 224.351C652.112 224.717 652.224 225.125 652.224 225.574C652.224 225.895 652.166 226.209 652.05 226.516C651.936 226.82 651.737 227.159 651.453 227.534C651.172 227.906 650.781 228.361 650.281 228.898L648.321 230.994V231.062H652.378V232H646.872ZM656.916 223.153C657.274 223.156 657.632 223.224 657.99 223.358C658.348 223.491 658.675 223.713 658.97 224.023C659.266 224.33 659.503 224.749 659.682 225.28C659.861 225.811 659.95 226.477 659.95 227.278C659.95 228.054 659.876 228.743 659.729 229.345C659.584 229.945 659.374 230.45 659.098 230.862C658.825 231.274 658.493 231.587 658.101 231.8C657.712 232.013 657.271 232.119 656.78 232.119C656.291 232.119 655.855 232.023 655.472 231.83C655.091 231.634 654.778 231.362 654.534 231.016C654.293 230.666 654.138 230.261 654.07 229.801H655.109C655.203 230.202 655.389 230.533 655.668 230.794C655.949 231.053 656.32 231.182 656.78 231.182C657.453 231.182 657.984 230.888 658.374 230.3C658.766 229.712 658.962 228.881 658.962 227.807H658.893C658.734 228.045 658.545 228.251 658.327 228.425C658.108 228.598 657.865 228.732 657.598 228.825C657.331 228.919 657.047 228.966 656.746 228.966C656.246 228.966 655.787 228.842 655.369 228.595C654.955 228.345 654.622 228.003 654.372 227.568C654.125 227.131 654.001 226.631 654.001 226.068C654.001 225.534 654.121 225.045 654.359 224.602C654.601 224.156 654.939 223.801 655.374 223.537C655.811 223.273 656.325 223.145 656.916 223.153ZM656.916 224.091C656.558 224.091 656.236 224.18 655.949 224.359C655.665 224.536 655.439 224.774 655.271 225.075C655.107 225.374 655.024 225.705 655.024 226.068C655.024 226.432 655.104 226.763 655.263 227.061C655.425 227.357 655.645 227.592 655.923 227.768C656.205 227.942 656.524 228.028 656.882 228.028C657.152 228.028 657.403 227.976 657.636 227.871C657.869 227.763 658.072 227.616 658.246 227.432C658.422 227.244 658.56 227.033 658.659 226.797C658.759 226.558 658.808 226.31 658.808 226.051C658.808 225.71 658.726 225.391 658.561 225.092C658.399 224.794 658.175 224.553 657.888 224.368C657.604 224.183 657.28 224.091 656.916 224.091ZM665.154 223.273H666.416L669.382 230.517H669.484L672.45 223.273H673.711V232H672.723V225.369H672.637L669.91 232H668.956L666.228 225.369H666.143V232H665.154V223.273ZM677.62 232.153C677.205 232.153 676.829 232.075 676.491 231.919C676.153 231.76 675.884 231.531 675.685 231.233C675.487 230.932 675.387 230.568 675.387 230.142C675.387 229.767 675.461 229.463 675.609 229.23C675.756 228.994 675.954 228.81 676.201 228.676C676.448 228.543 676.721 228.443 677.019 228.378C677.32 228.31 677.623 228.256 677.927 228.216C678.325 228.165 678.647 228.126 678.894 228.101C679.144 228.072 679.326 228.026 679.44 227.96C679.556 227.895 679.614 227.781 679.614 227.619V227.585C679.614 227.165 679.499 226.838 679.269 226.605C679.042 226.372 678.697 226.256 678.234 226.256C677.754 226.256 677.377 226.361 677.104 226.571C676.832 226.781 676.64 227.006 676.529 227.244L675.575 226.903C675.745 226.506 675.972 226.196 676.256 225.974C676.543 225.75 676.856 225.594 677.194 225.506C677.535 225.415 677.87 225.369 678.2 225.369C678.41 225.369 678.651 225.395 678.924 225.446C679.2 225.494 679.465 225.595 679.721 225.749C679.979 225.902 680.194 226.134 680.364 226.443C680.535 226.753 680.62 227.168 680.62 227.688V232H679.614V231.114H679.563C679.495 231.256 679.381 231.408 679.222 231.57C679.063 231.732 678.852 231.869 678.587 231.983C678.323 232.097 678.001 232.153 677.62 232.153ZM677.773 231.25C678.171 231.25 678.506 231.172 678.779 231.016C679.055 230.859 679.262 230.658 679.401 230.411C679.543 230.163 679.614 229.903 679.614 229.631V228.71C679.572 228.761 679.478 228.808 679.333 228.851C679.191 228.891 679.026 228.926 678.839 228.957C678.654 228.986 678.474 229.011 678.298 229.034C678.124 229.054 677.984 229.071 677.876 229.085C677.614 229.119 677.37 229.175 677.143 229.251C676.918 229.325 676.737 229.437 676.597 229.588C676.461 229.736 676.393 229.937 676.393 230.193C676.393 230.543 676.522 230.807 676.781 230.986C677.042 231.162 677.373 231.25 677.773 231.25ZM682.456 232V225.455H683.427V226.443H683.495C683.615 226.119 683.831 225.857 684.143 225.655C684.456 225.453 684.808 225.352 685.2 225.352C685.274 225.352 685.366 225.354 685.477 225.357C685.588 225.359 685.672 225.364 685.728 225.369V226.392C685.694 226.384 685.616 226.371 685.494 226.354C685.375 226.334 685.248 226.324 685.115 226.324C684.797 226.324 684.512 226.391 684.262 226.524C684.015 226.655 683.819 226.837 683.674 227.07C683.532 227.3 683.461 227.562 683.461 227.858V232H682.456Z" fill="#ACABB3"/>
<path d="M30.8896 3.27273V12H29.8327V4.38068H29.7816L27.6509 5.79545V4.72159L29.8327 3.27273H30.8896ZM36.2461 12.1193C35.604 12.1193 35.0572 11.9446 34.6055 11.5952C34.1538 11.2429 33.8086 10.733 33.57 10.0653C33.3313 9.39489 33.212 8.58523 33.212 7.63636C33.212 6.69318 33.3313 5.88778 33.57 5.22017C33.8114 4.54972 34.158 4.03835 34.6097 3.68608C35.0643 3.33097 35.6097 3.15341 36.2461 3.15341C36.8825 3.15341 37.4265 3.33097 37.8782 3.68608C38.3327 4.03835 38.6793 4.54972 38.918 5.22017C39.1594 5.88778 39.2802 6.69318 39.2802 7.63636C39.2802 8.58523 39.1609 9.39489 38.9222 10.0653C38.6836 10.733 38.3384 11.2429 37.8867 11.5952C37.435 11.9446 36.8881 12.1193 36.2461 12.1193ZM36.2461 11.1818C36.8825 11.1818 37.3768 10.875 37.729 10.2614C38.0813 9.64773 38.2575 8.77273 38.2575 7.63636C38.2575 6.88068 38.1765 6.23722 38.0146 5.70597C37.8555 5.17472 37.6254 4.76989 37.3242 4.49148C37.0259 4.21307 36.6665 4.07386 36.2461 4.07386C35.6154 4.07386 35.1225 4.38494 34.7674 5.0071C34.4123 5.62642 34.2347 6.50284 34.2347 7.63636C34.2347 8.39205 34.3143 9.03409 34.4734 9.5625C34.6325 10.0909 34.8612 10.4929 35.1594 10.7685C35.4606 11.044 35.8228 11.1818 36.2461 11.1818ZM43.7461 12.1193C43.104 12.1193 42.5572 11.9446 42.1055 11.5952C41.6538 11.2429 41.3086 10.733 41.07 10.0653C40.8313 9.39489 40.712 8.58523 40.712 7.63636C40.712 6.69318 40.8313 5.88778 41.07 5.22017C41.3114 4.54972 41.658 4.03835 42.1097 3.68608C42.5643 3.33097 43.1097 3.15341 43.7461 3.15341C44.3825 3.15341 44.9265 3.33097 45.3782 3.68608C45.8327 4.03835 46.1793 4.54972 46.418 5.22017C46.6594 5.88778 46.7802 6.69318 46.7802 7.63636C46.7802 8.58523 46.6609 9.39489 46.4222 10.0653C46.1836 10.733 45.8384 11.2429 45.3867 11.5952C44.935 11.9446 44.3881 12.1193 43.7461 12.1193ZM43.7461 11.1818C44.3825 11.1818 44.8768 10.875 45.229 10.2614C45.5813 9.64773 45.7575 8.77273 45.7575 7.63636C45.7575 6.88068 45.6765 6.23722 45.5146 5.70597C45.3555 5.17472 45.1254 4.76989 44.8242 4.49148C44.5259 4.21307 44.1665 4.07386 43.7461 4.07386C43.1154 4.07386 42.6225 4.38494 42.2674 5.0071C41.9123 5.62642 41.7347 6.50284 41.7347 7.63636C41.7347 8.39205 41.8143 9.03409 41.9734 9.5625C42.1325 10.0909 42.3612 10.4929 42.6594 10.7685C42.9606 11.044 43.3228 11.1818 43.7461 11.1818Z" fill="#ACABB3"/>
<path d="M36.3004 52.9201C35.7152 52.9201 35.1982 52.8164 34.7493 52.609C34.3033 52.3988 33.9553 52.1104 33.7053 51.744C33.4553 51.3746 33.3317 50.9542 33.3345 50.4826C33.3317 50.1133 33.4041 49.7724 33.5518 49.4599C33.6996 49.1445 33.9013 48.8817 34.157 48.6715C34.4155 48.4585 34.7038 48.3235 35.022 48.2667V48.2156C34.6044 48.1076 34.272 47.8732 34.0249 47.5124C33.7777 47.1488 33.6555 46.7354 33.6584 46.2724C33.6555 45.8292 33.7678 45.4329 33.995 45.0835C34.2223 44.734 34.5348 44.4585 34.9325 44.2567C35.3331 44.055 35.7891 43.9542 36.3004 43.9542C36.8061 43.9542 37.2578 44.055 37.6555 44.2567C38.0533 44.4585 38.3658 44.734 38.593 45.0835C38.8232 45.4329 38.9396 45.8292 38.9425 46.2724C38.9396 46.7354 38.8132 47.1488 38.5632 47.5124C38.3161 47.8732 37.9879 48.1076 37.5788 48.2156V48.2667C37.8942 48.3235 38.1783 48.4585 38.4311 48.6715C38.6839 48.8817 38.8857 49.1445 39.0362 49.4599C39.1868 49.7724 39.2635 50.1133 39.2663 50.4826C39.2635 50.9542 39.1357 51.3746 38.8828 51.744C38.6328 52.1104 38.2848 52.3988 37.8388 52.609C37.3956 52.8164 36.8828 52.9201 36.3004 52.9201ZM36.3004 51.9826C36.6953 51.9826 37.0362 51.9187 37.3232 51.7908C37.6101 51.663 37.8317 51.4826 37.9879 51.2496C38.1442 51.0167 38.2237 50.744 38.2266 50.4315C38.2237 50.1019 38.1385 49.8107 37.9709 49.5579C37.8033 49.305 37.5746 49.1062 37.2848 48.9613C36.9979 48.8164 36.6697 48.744 36.3004 48.744C35.9283 48.744 35.5959 48.8164 35.3033 48.9613C35.0135 49.1062 34.7848 49.305 34.6172 49.5579C34.4524 49.8107 34.3714 50.1019 34.3743 50.4315C34.3714 50.744 34.4467 51.0167 34.6001 51.2496C34.7564 51.4826 34.9794 51.663 35.2692 51.7908C35.5589 51.9187 35.9027 51.9826 36.3004 51.9826ZM36.3004 47.8406C36.6129 47.8406 36.8899 47.7781 37.1314 47.6531C37.3757 47.5281 37.5675 47.3533 37.7067 47.1289C37.8459 46.9045 37.9169 46.6417 37.9197 46.3406C37.9169 46.0451 37.8473 45.788 37.7109 45.5692C37.5746 45.3477 37.3857 45.1772 37.1442 45.0579C36.9027 44.9357 36.6214 44.8746 36.3004 44.8746C35.9737 44.8746 35.6882 44.9357 35.4439 45.0579C35.1996 45.1772 35.0107 45.3477 34.8771 45.5692C34.7436 45.788 34.6783 46.0451 34.6811 46.3406C34.6783 46.6417 34.745 46.9045 34.8814 47.1289C35.0206 47.3533 35.2124 47.5281 35.4567 47.6531C35.701 47.7781 35.9822 47.8406 36.3004 47.8406ZM43.7461 52.9201C43.104 52.9201 42.5572 52.7454 42.1055 52.396C41.6538 52.0437 41.3086 51.5337 41.07 50.8661C40.8313 50.1957 40.712 49.386 40.712 48.4371C40.712 47.494 40.8313 46.6886 41.07 46.021C41.3114 45.3505 41.658 44.8391 42.1097 44.4869C42.5643 44.1317 43.1097 43.9542 43.7461 43.9542C44.3825 43.9542 44.9265 44.1317 45.3782 44.4869C45.8327 44.8391 46.1793 45.3505 46.418 46.021C46.6594 46.6886 46.7802 47.494 46.7802 48.4371C46.7802 49.386 46.6609 50.1957 46.4222 50.8661C46.1836 51.5337 45.8384 52.0437 45.3867 52.396C44.935 52.7454 44.3881 52.9201 43.7461 52.9201ZM43.7461 51.9826C44.3825 51.9826 44.8768 51.6758 45.229 51.0621C45.5813 50.4485 45.7575 49.5735 45.7575 48.4371C45.7575 47.6815 45.6765 47.038 45.5146 46.5067C45.3555 45.9755 45.1254 45.5707 44.8242 45.2923C44.5259 45.0138 44.1665 44.8746 43.7461 44.8746C43.1154 44.8746 42.6225 45.1857 42.2674 45.8079C41.9123 46.4272 41.7347 47.3036 41.7347 48.4371C41.7347 49.1928 41.8143 49.8349 41.9734 50.3633C42.1325 50.8917 42.3612 51.2937 42.6594 51.5692C42.9606 51.8448 43.3228 51.9826 43.7461 51.9826Z" fill="#ACABB3"/>
<path d="M36.3089 93.7189C35.951 93.7132 35.593 93.6451 35.2351 93.5144C34.8771 93.3837 34.5504 93.1635 34.255 92.8539C33.9595 92.5414 33.7223 92.1195 33.5433 91.5882C33.3643 91.0542 33.2749 90.3837 33.2749 89.5769C33.2749 88.8042 33.3473 88.1195 33.4922 87.5229C33.6371 86.9235 33.8473 86.4192 34.1229 86.0101C34.3984 85.5982 34.7308 85.2857 35.12 85.0726C35.5121 84.8596 35.9538 84.753 36.4453 84.753C36.9339 84.753 37.3686 84.851 37.7493 85.0471C38.1328 85.2402 38.4453 85.5101 38.6868 85.8567C38.9283 86.2033 39.0845 86.6025 39.1555 87.0542H38.1158C38.0192 86.6621 37.8317 86.3368 37.5533 86.0783C37.2749 85.8198 36.9055 85.6905 36.4453 85.6905C35.7692 85.6905 35.2365 85.9846 34.8473 86.5726C34.4609 87.1607 34.2663 87.986 34.2635 89.0485H34.3317C34.4908 88.807 34.6797 88.601 34.8984 88.4306C35.12 88.2573 35.3643 88.1238 35.6314 88.03C35.8984 87.9363 36.1811 87.8894 36.4794 87.8894C36.9794 87.8894 37.4368 88.0144 37.8516 88.2644C38.2663 88.5115 38.5987 88.8539 38.8487 89.2914C39.0987 89.726 39.2237 90.2246 39.2237 90.7871C39.2237 91.3269 39.103 91.8212 38.8615 92.2701C38.62 92.7161 38.2805 93.0712 37.843 93.3354C37.4084 93.5968 36.897 93.7246 36.3089 93.7189ZM36.3089 92.7814C36.6669 92.7814 36.9879 92.6919 37.272 92.513C37.5589 92.334 37.7848 92.0939 37.9496 91.7928C38.1172 91.4917 38.201 91.1564 38.201 90.7871C38.201 90.4263 38.12 90.0982 37.9581 89.8027C37.799 89.5044 37.5788 89.2672 37.2976 89.0911C37.0192 88.915 36.701 88.8269 36.343 88.8269C36.0732 88.8269 35.8217 88.8809 35.5888 88.9888C35.3558 89.0939 35.1513 89.2388 34.9751 89.4235C34.8018 89.6081 34.6655 89.8198 34.5661 90.0584C34.4666 90.2942 34.4169 90.5428 34.4169 90.8042C34.4169 91.1507 34.4979 91.4746 34.6598 91.7757C34.8246 92.0769 35.049 92.3198 35.3331 92.5044C35.62 92.6891 35.9453 92.7814 36.3089 92.7814ZM43.7461 93.7189C43.104 93.7189 42.5572 93.5442 42.1055 93.1948C41.6538 92.8425 41.3086 92.3326 41.07 91.665C40.8313 90.9945 40.712 90.1848 40.712 89.236C40.712 88.2928 40.8313 87.4874 41.07 86.8198C41.3114 86.1493 41.658 85.638 42.1097 85.2857C42.5643 84.9306 43.1097 84.753 43.7461 84.753C44.3825 84.753 44.9265 84.9306 45.3782 85.2857C45.8327 85.638 46.1793 86.1493 46.418 86.8198C46.6594 87.4874 46.7802 88.2928 46.7802 89.236C46.7802 90.1848 46.6609 90.9945 46.4222 91.665C46.1836 92.3326 45.8384 92.8425 45.3867 93.1948C44.935 93.5442 44.3881 93.7189 43.7461 93.7189ZM43.7461 92.7814C44.3825 92.7814 44.8768 92.4746 45.229 91.861C45.5813 91.2473 45.7575 90.3723 45.7575 89.236C45.7575 88.4803 45.6765 87.8368 45.5146 87.3056C45.3555 86.7743 45.1254 86.3695 44.8242 86.0911C44.5259 85.8127 44.1665 85.6735 43.7461 85.6735C43.1154 85.6735 42.6225 85.9846 42.2674 86.6067C41.9123 87.226 41.7347 88.1024 41.7347 89.236C41.7347 89.9917 41.8143 90.6337 41.9734 91.1621C42.1325 91.6905 42.3612 92.0925 42.6594 92.3681C42.9606 92.6436 43.3228 92.7814 43.7461 92.7814Z" fill="#ACABB3"/>
<path d="M32.9957 132.611V131.741L36.831 125.673H37.4616V127.02H37.0355L34.1378 131.605V131.673H39.3026V132.611H32.9957ZM37.1037 134.4V132.346V131.942V125.673H38.1094V134.4H37.1037ZM43.7461 134.52C43.104 134.52 42.5572 134.345 42.1055 133.996C41.6538 133.643 41.3086 133.133 41.07 132.466C40.8313 131.795 40.712 130.986 40.712 130.037C40.712 129.094 40.8313 128.288 41.07 127.621C41.3114 126.95 41.658 126.439 42.1097 126.086C42.5643 125.731 43.1097 125.554 43.7461 125.554C44.3825 125.554 44.9265 125.731 45.3782 126.086C45.8327 126.439 46.1793 126.95 46.418 127.621C46.6594 128.288 46.7802 129.094 46.7802 130.037C46.7802 130.986 46.6609 131.795 46.4222 132.466C46.1836 133.133 45.8384 133.643 45.3867 133.996C44.935 134.345 44.3881 134.52 43.7461 134.52ZM43.7461 133.582C44.3825 133.582 44.8768 133.275 45.229 132.662C45.5813 132.048 45.7575 131.173 45.7575 130.037C45.7575 129.281 45.6765 128.638 45.5146 128.106C45.3555 127.575 45.1254 127.17 44.8242 126.892C44.5259 126.613 44.1665 126.474 43.7461 126.474C43.1154 126.474 42.6225 126.785 42.2674 127.407C41.9123 128.027 41.7347 128.903 41.7347 130.037C41.7347 130.792 41.8143 131.434 41.9734 131.963C42.1325 132.491 42.3612 132.893 42.6594 133.169C42.9606 133.444 43.3228 133.582 43.7461 133.582Z" fill="#ACABB3"/>
<path d="M33.6339 175.199V174.432L36.5146 171.279C36.8526 170.909 37.131 170.588 37.3498 170.316C37.5685 170.04 37.7305 169.782 37.8356 169.54C37.9435 169.296 37.9975 169.04 37.9975 168.773C37.9975 168.466 37.9237 168.201 37.7759 167.976C37.631 167.752 37.4322 167.578 37.1793 167.456C36.9265 167.334 36.6424 167.273 36.3271 167.273C35.9918 167.273 35.6992 167.343 35.4492 167.482C35.2021 167.618 35.0103 167.81 34.8739 168.057C34.7404 168.304 34.6737 168.594 34.6737 168.926H33.668C33.668 168.415 33.7859 167.966 34.0217 167.58C34.2575 167.194 34.5785 166.892 34.9847 166.676C35.3938 166.461 35.8526 166.353 36.3612 166.353C36.8725 166.353 37.3256 166.461 37.7205 166.676C38.1154 166.892 38.4251 167.184 38.6495 167.55C38.8739 167.917 38.9862 168.324 38.9862 168.773C38.9862 169.094 38.9279 169.408 38.8114 169.715C38.6978 170.019 38.4989 170.358 38.2148 170.733C37.9336 171.105 37.543 171.56 37.043 172.097L35.0827 174.194V174.262H39.1396V175.199H33.6339ZM43.7461 175.319C43.104 175.319 42.5572 175.144 42.1055 174.794C41.6538 174.442 41.3086 173.932 41.07 173.265C40.8313 172.594 40.712 171.784 40.712 170.836C40.712 169.892 40.8313 169.087 41.07 168.419C41.3114 167.749 41.658 167.238 42.1097 166.885C42.5643 166.53 43.1097 166.353 43.7461 166.353C44.3825 166.353 44.9265 166.53 45.3782 166.885C45.8327 167.238 46.1793 167.749 46.418 168.419C46.6594 169.087 46.7802 169.892 46.7802 170.836C46.7802 171.784 46.6609 172.594 46.4222 173.265C46.1836 173.932 45.8384 174.442 45.3867 174.794C44.935 175.144 44.3881 175.319 43.7461 175.319ZM43.7461 174.381C44.3825 174.381 44.8768 174.074 45.229 173.461C45.5813 172.847 45.7575 171.972 45.7575 170.836C45.7575 170.08 45.6765 169.436 45.5146 168.905C45.3555 168.374 45.1254 167.969 44.8242 167.691C44.5259 167.412 44.1665 167.273 43.7461 167.273C43.1154 167.273 42.6225 167.584 42.2674 168.206C41.9123 168.826 41.7347 169.702 41.7347 170.836C41.7347 171.591 41.8143 172.233 41.9734 172.762C42.1325 173.29 42.3612 173.692 42.6594 173.968C42.9606 174.243 43.3228 174.381 43.7461 174.381Z" fill="#ACABB3"/>
<path d="M43.7461 216.119C43.104 216.119 42.5572 215.945 42.1055 215.595C41.6538 215.243 41.3086 214.733 41.07 214.065C40.8313 213.395 40.712 212.585 40.712 211.636C40.712 210.693 40.8313 209.888 41.07 209.22C41.3114 208.55 41.658 208.038 42.1097 207.686C42.5643 207.331 43.1097 207.153 43.7461 207.153C44.3825 207.153 44.9265 207.331 45.3782 207.686C45.8327 208.038 46.1793 208.55 46.418 209.22C46.6594 209.888 46.7802 210.693 46.7802 211.636C46.7802 212.585 46.6609 213.395 46.4222 214.065C46.1836 214.733 45.8384 215.243 45.3867 215.595C44.935 215.945 44.3881 216.119 43.7461 216.119ZM43.7461 215.182C44.3825 215.182 44.8768 214.875 45.229 214.261C45.5813 213.648 45.7575 212.773 45.7575 211.636C45.7575 210.881 45.6765 210.237 45.5146 209.706C45.3555 209.175 45.1254 208.77 44.8242 208.491C44.5259 208.213 44.1665 208.074 43.7461 208.074C43.1154 208.074 42.6225 208.385 42.2674 209.007C41.9123 209.626 41.7347 210.503 41.7347 211.636C41.7347 212.392 41.8143 213.034 41.9734 213.562C42.1325 214.091 42.3612 214.493 42.6594 214.768C42.9606 215.044 43.3228 215.182 43.7461 215.182Z" fill="#ACABB3"/>
<path d="M4.21953 172.851L3.28216 172.835L3.3933 166.291L4.33067 166.307L4.28407 169.051L12.0727 169.183L12.0548 170.24L4.26612 170.107L4.21953 172.851ZM12.3157 163.912C12.3086 164.327 12.2241 164.702 12.0622 165.037C11.8973 165.372 11.6641 165.637 11.3625 165.831C11.058 166.024 10.6928 166.118 10.2667 166.11C9.89173 166.104 9.58905 166.025 9.35864 165.873C9.12539 165.722 8.94411 165.521 8.8148 165.272C8.68549 165.022 8.59071 164.748 8.53044 164.449C8.46738 164.146 8.41855 163.843 8.38394 163.538C8.33957 163.14 8.3067 162.817 8.28533 162.569C8.26117 162.319 8.21739 162.136 8.15399 162.021C8.09063 161.904 7.978 161.844 7.81609 161.841L7.78201 161.84C7.36161 161.833 7.033 161.943 6.79617 162.169C6.55939 162.392 6.43707 162.735 6.42921 163.198C6.42106 163.678 6.51976 164.056 6.72533 164.333C6.9309 164.609 7.15204 164.805 7.38876 164.919L7.03169 165.868C6.63692 165.691 6.33116 165.458 6.11443 165.17C5.8949 164.88 5.74398 164.565 5.66166 164.225C5.57655 163.883 5.5368 163.547 5.54239 163.217C5.54596 163.007 5.57563 162.766 5.63139 162.494C5.68436 162.22 5.7897 161.956 5.94743 161.703C6.10521 161.447 6.34035 161.236 6.65286 161.071C6.96537 160.906 7.38153 160.828 7.90134 160.837L12.2132 160.91L12.1961 161.915L11.3099 161.9L11.309 161.951C11.4499 162.022 11.5999 162.138 11.7592 162.3C11.9184 162.462 12.0525 162.676 12.1617 162.942C12.2708 163.208 12.3221 163.531 12.3157 163.912ZM11.415 163.743C11.4217 163.346 11.3493 163.009 11.1977 162.734C11.0462 162.456 10.848 162.245 10.6033 162.101C10.3586 161.955 10.0999 161.88 9.82717 161.875L8.90684 161.859C8.95725 161.903 9.00253 161.997 9.04267 162.143C9.08003 162.286 9.11274 162.451 9.1408 162.639C9.16607 162.824 9.18857 163.005 9.2083 163.182C9.22524 163.355 9.2399 163.496 9.25227 163.604C9.28192 163.866 9.33316 164.111 9.40599 164.34C9.47603 164.566 9.58515 164.749 9.73333 164.891C9.87872 165.03 10.0792 165.101 10.3349 165.106C10.6843 165.112 10.9506 164.987 11.134 164.731C11.3145 164.473 11.4082 164.144 11.415 163.743ZM7.2443 154.353L7.4846 155.26C7.33309 155.314 7.18538 155.396 7.04148 155.504C6.89478 155.61 6.77297 155.755 6.67605 155.941C6.57913 156.127 6.52818 156.366 6.52322 156.659C6.51641 157.059 6.60306 157.395 6.78316 157.665C6.96047 157.932 7.18972 158.068 7.47093 158.073C7.7209 158.077 7.91986 157.99 8.06781 157.81C8.21576 157.631 8.34131 157.349 8.44444 156.964L8.69954 155.997C8.85151 155.414 9.07621 154.982 9.37365 154.7C9.66825 154.418 10.0442 154.281 10.5015 154.288C10.8765 154.295 11.2098 154.408 11.5016 154.629C11.7934 154.847 12.0212 155.15 12.1851 155.536C12.3491 155.922 12.4267 156.37 12.4181 156.878C12.4067 157.546 12.2525 158.096 11.9553 158.528C11.6582 158.961 11.2302 159.231 10.6715 159.338L10.4491 158.379C10.8029 158.294 11.07 158.127 11.2504 157.877C11.4308 157.624 11.5245 157.292 11.5315 156.88C11.5395 156.412 11.4464 156.038 11.2522 155.759C11.0553 155.477 10.8162 155.334 10.535 155.329C10.3078 155.325 10.1161 155.401 9.96002 155.558C9.80109 155.714 9.68048 155.957 9.59819 156.285L9.32402 157.371C9.17182 157.968 8.9442 158.405 8.64118 158.681C8.33536 158.954 7.95663 159.087 7.50499 159.079C7.13572 159.073 6.81082 158.964 6.5303 158.752C6.24982 158.537 6.03168 158.247 5.8759 157.884C5.72017 157.517 5.64621 157.104 5.65402 156.644C5.66502 155.996 5.81568 155.49 6.106 155.126C6.39637 154.759 6.7758 154.501 7.2443 154.353ZM9.98074 151.828L8.73631 151.824L8.73979 151.619L5.87406 148.707L5.89519 147.462L8.92816 150.566L8.92671 150.651L9.98074 151.828ZM12.3508 152.806L3.62483 152.658L3.6419 151.652L12.3679 151.8L12.3508 152.806ZM12.4215 148.647L9.13988 151.149L8.45327 150.421L12.4432 147.369L12.4215 148.647ZM7.46159 141.557L7.70189 142.465C7.55038 142.519 7.40267 142.601 7.25877 142.709C7.11207 142.815 6.99026 142.96 6.89334 143.146C6.79642 143.332 6.74547 143.571 6.7405 143.864C6.7337 144.264 6.82035 144.6 7.00045 144.87C7.17776 145.137 7.40701 145.273 7.68822 145.278C7.93819 145.282 8.13714 145.194 8.2851 145.015C8.43305 144.836 8.5586 144.554 8.66173 144.169L8.91683 143.202C9.06879 142.619 9.2935 142.187 9.59094 141.905C9.88554 141.623 10.2615 141.486 10.7188 141.493C11.0938 141.5 11.4271 141.613 11.7189 141.834C12.0107 142.052 12.2385 142.355 12.4024 142.741C12.5663 143.127 12.644 143.575 12.6354 144.083C12.624 144.751 12.4698 145.301 12.1726 145.733C11.8755 146.166 11.4475 146.436 10.8888 146.543L10.6664 145.584C11.0202 145.499 11.2873 145.332 11.4677 145.082C11.6481 144.829 11.7418 144.497 11.7488 144.085C11.7568 143.617 11.6637 143.243 11.4695 142.964C11.2726 142.682 11.0335 142.539 10.7523 142.534C10.5251 142.53 10.3334 142.606 10.1773 142.763C10.0184 142.919 9.89777 143.162 9.81548 143.49L9.54131 144.576C9.38911 145.173 9.16149 145.61 8.85846 145.886C8.55264 146.159 8.17391 146.292 7.72228 146.284C7.35301 146.278 7.02811 146.169 6.74759 145.957C6.4671 145.741 6.24897 145.452 6.09319 145.089C5.93746 144.722 5.8635 144.309 5.87131 143.849C5.88231 143.201 6.03297 142.695 6.32329 142.331C6.61366 141.964 6.99309 141.706 7.46159 141.557ZM12.8069 133.98C12.7965 134.593 12.6427 135.119 12.3454 135.558C12.0482 135.996 11.6433 136.33 11.1308 136.56C10.6183 136.79 10.0354 136.899 9.38206 136.888C8.71738 136.877 8.13289 136.745 7.62859 136.492C7.1215 136.236 6.72825 135.885 6.44883 135.44C6.16663 134.992 6.03054 134.473 6.04057 133.882C6.04839 133.422 6.14065 133.009 6.31735 132.642C6.49405 132.276 6.73779 131.977 7.04856 131.747C7.35934 131.516 7.71973 131.376 8.12973 131.326L8.11265 132.332C7.8131 132.403 7.54603 132.569 7.31147 132.83C7.07411 133.087 6.95167 133.437 6.94414 133.88C6.93748 134.272 7.03391 134.618 7.23341 134.917C7.43011 135.213 7.7117 135.446 8.07817 135.617C8.44184 135.785 8.8708 135.874 9.36505 135.882C9.87066 135.891 10.3123 135.818 10.6899 135.666C11.0676 135.51 11.3626 135.288 11.575 134.999C11.7873 134.707 11.8969 134.362 11.9037 133.965C11.9081 133.703 11.8667 133.465 11.7794 133.251C11.6921 133.036 11.5645 132.854 11.3966 132.703C11.2287 132.552 11.0259 132.444 10.7884 132.377L10.8055 131.372C11.1908 131.435 11.5364 131.582 11.8422 131.811C12.1452 132.038 12.3845 132.336 12.5601 132.706C12.7328 133.072 12.8151 133.497 12.8069 133.98ZM12.9208 127.278C12.9107 127.869 12.7613 128.385 12.4725 128.826C12.1838 129.264 11.7845 129.604 11.2746 129.845C10.7648 130.084 10.1719 130.197 9.49588 130.186C8.81416 130.174 8.22117 130.041 7.71692 129.785C7.21271 129.526 6.82377 129.173 6.55008 128.725C6.27645 128.274 6.14465 127.754 6.15468 127.163C6.16471 126.572 6.3141 126.057 6.60283 125.619C6.89162 125.178 7.29233 124.838 7.80498 124.6C8.31767 124.358 8.91488 124.243 9.5966 124.255C10.2726 124.266 10.8613 124.401 11.3627 124.66C11.8641 124.916 12.2516 125.269 12.5253 125.72C12.799 126.168 12.9308 126.687 12.9208 127.278ZM12.0175 127.262C12.0251 126.814 11.9163 126.442 11.6912 126.149C11.466 125.855 11.1671 125.636 10.7946 125.49C10.422 125.344 10.017 125.268 9.57952 125.26C9.14208 125.253 8.73329 125.316 8.35314 125.448C7.97299 125.581 7.664 125.791 7.42615 126.076C7.18831 126.362 7.06558 126.729 7.05796 127.178C7.05034 127.627 7.16053 127.998 7.38853 128.292C7.61653 128.586 7.91824 128.805 8.29366 128.951C8.66909 129.096 9.07552 129.173 9.51295 129.18C9.95039 129.188 10.3578 129.125 10.7351 128.992C11.1124 128.859 11.4185 128.65 11.6535 128.364C11.8885 128.079 12.0099 127.711 12.0175 127.262ZM12.8608 122.775L6.31632 122.664L6.33282 121.692L7.3554 121.71L7.35685 121.625C7.00978 121.482 6.74225 121.258 6.55426 120.95C6.36343 120.643 6.27163 120.276 6.27886 119.85C6.2862 119.419 6.3903 119.061 6.59116 118.777C6.78924 118.491 7.06434 118.27 7.41647 118.114L7.41763 118.046C7.08245 117.872 6.8183 117.616 6.62515 117.278C6.42917 116.939 6.33516 116.535 6.34312 116.067C6.35305 115.482 6.54439 115.006 6.91714 114.64C7.28704 114.274 7.85688 114.098 8.62666 114.111L13.0067 114.185L12.9896 115.191L8.60958 115.116C8.12669 115.108 7.77933 115.235 7.56749 115.495C7.35565 115.756 7.24669 116.065 7.24061 116.423C7.23279 116.883 7.36592 117.242 7.64 117.5C7.91123 117.757 8.25847 117.889 8.6817 117.897L12.9425 117.969L12.9251 118.991L8.44278 118.915C8.07067 118.909 7.76895 119.025 7.53761 119.262C7.30343 119.5 7.18311 119.809 7.17664 120.189C7.17221 120.451 7.23765 120.696 7.37297 120.926C7.50835 121.153 7.69842 121.338 7.94318 121.481C8.18514 121.622 8.46661 121.695 8.78759 121.7L12.8779 121.769L12.8608 122.775ZM15.4921 112.388L6.49342 112.236L6.50991 111.264L7.54954 111.282L7.55156 111.163C7.4392 111.087 7.29607 110.982 7.12218 110.848C6.94549 110.712 6.78966 110.519 6.65467 110.269C6.51689 110.017 6.45162 109.678 6.45885 109.252C6.46821 108.701 6.61422 108.217 6.89689 107.802C7.17956 107.386 7.5757 107.064 8.08531 106.837C8.59492 106.61 9.19343 106.502 9.88083 106.514C10.5739 106.526 11.1727 106.654 11.6771 106.898C12.1787 107.143 12.5652 107.476 12.8364 107.898C13.1049 108.32 13.2345 108.804 13.2252 109.35C13.2181 109.77 13.1428 110.105 12.9993 110.356C12.853 110.606 12.6892 110.798 12.5079 110.931C12.3238 111.065 12.1715 111.167 12.0509 111.239L12.0495 111.324L15.5092 111.383L15.4921 112.388ZM9.78246 111.303C10.2767 111.311 10.714 111.246 11.0942 111.108C11.4716 110.969 11.7692 110.763 11.987 110.488C12.2019 110.213 12.3128 109.874 12.3196 109.471C12.3268 109.05 12.2219 108.697 12.0052 108.413C11.7856 108.125 11.4881 107.907 11.1127 107.758C10.7346 107.607 10.3126 107.527 9.84671 107.519C9.38655 107.511 8.97063 107.575 8.59896 107.711C8.22449 107.844 7.9269 108.051 7.7062 108.331C7.48271 108.608 7.36734 108.96 7.36011 109.386C7.35316 109.795 7.451 110.141 7.65363 110.423C7.85342 110.705 8.13674 110.92 8.50359 111.068C8.8676 111.216 9.29389 111.294 9.78246 111.303ZM4.45316 103.882L13.1792 104.03L13.1621 105.035L4.43608 104.887L4.45316 103.882ZM13.3934 99.4465C13.3827 100.077 13.2343 100.619 12.9481 101.071C12.6592 101.521 12.2612 101.865 11.7543 102.104C11.2445 102.339 10.6545 102.452 9.98411 102.44C9.31375 102.429 8.725 102.297 8.21786 102.044C7.70793 101.788 7.31325 101.437 7.03384 100.992C6.75163 100.544 6.61555 100.025 6.62558 99.4339C6.63137 99.093 6.6939 98.7574 6.81316 98.427C6.93242 98.0966 7.12219 97.7972 7.38247 97.5288C7.63991 97.2604 7.97877 97.0488 8.39908 96.894C8.81938 96.7392 9.33489 96.667 9.94559 96.6774L10.3717 96.6846L10.286 101.729L9.4168 101.715L9.48511 97.6924C9.11584 97.6861 8.78509 97.7544 8.49285 97.8972C8.20066 98.0371 7.96848 98.2406 7.79631 98.5076C7.62418 98.7718 7.53503 99.0856 7.52886 99.4492C7.52206 99.8497 7.61559 100.198 7.80946 100.494C8.00053 100.787 8.25239 101.014 8.56503 101.176C8.87767 101.337 9.21437 101.421 9.57511 101.427L10.1546 101.437C10.6488 101.446 11.0692 101.368 11.4158 101.203C11.7596 101.035 12.0236 100.8 12.2078 100.496C12.3891 100.192 12.4832 99.8374 12.4901 99.4312C12.4946 99.167 12.4617 98.9278 12.3915 98.7135C12.3185 98.4963 12.208 98.3083 12.0601 98.1495C11.9094 97.9907 11.7211 97.8668 11.4953 97.7777L11.7845 96.8109C12.1123 96.9187 12.3991 97.0955 12.6449 97.3412C12.888 97.5868 13.076 97.8884 13.2092 98.2458C13.3395 98.6032 13.4009 99.0034 13.3934 99.4465ZM6.83286 92.2474L7.68501 92.2619L7.62742 95.6535L6.77527 95.639L6.83286 92.2474ZM5.2241 94.6239L5.24117 93.6183L11.4789 93.7243C11.763 93.7291 11.9767 93.6915 12.1201 93.6116C12.2608 93.5287 12.3563 93.4224 12.4068 93.2925C12.4545 93.1598 12.4797 93.0196 12.4822 92.8719C12.484 92.7611 12.4799 92.6701 12.4698 92.5989C12.4568 92.5276 12.4464 92.4706 12.4386 92.4279L13.3453 92.2387C13.3697 92.3073 13.3937 92.4029 13.4172 92.5255C13.4435 92.6481 13.4551 92.8031 13.4519 92.9906C13.4471 93.2747 13.3813 93.552 13.2545 93.8226C13.1278 94.0904 12.9379 94.3116 12.6849 94.4863C12.4319 94.6582 12.1151 94.7409 11.7345 94.7344L5.2241 94.6239ZM13.5848 88.1747C13.5741 88.8053 13.4257 89.3469 13.1395 89.7995C12.8506 90.2492 12.4527 90.5933 11.9457 90.8319C11.4359 91.0676 10.8459 91.1798 10.1755 91.1684C9.50517 91.157 8.91642 91.0248 8.40928 90.7719C7.89935 90.516 7.50467 90.1655 7.22526 89.7204C6.94306 89.2723 6.80697 88.7529 6.817 88.1621C6.82279 87.8212 6.88532 87.4856 7.00458 87.1552C7.12384 86.8248 7.31361 86.5254 7.57389 86.257C7.83133 85.9886 8.1702 85.777 8.5905 85.6222C9.0108 85.4674 9.52631 85.3952 10.137 85.4055L10.5631 85.4128L10.4774 90.4575L9.60822 90.4427L9.67653 86.4206C9.30727 86.4143 8.97651 86.4826 8.68427 86.6254C8.39208 86.7653 8.1599 86.9688 7.98773 87.2358C7.81561 87.4999 7.72646 87.8138 7.72028 88.1774C7.71348 88.5779 7.80701 88.9261 8.00088 89.2221C8.19195 89.5152 8.44381 89.7425 8.75645 89.9041C9.0691 90.0656 9.40579 90.1495 9.76653 90.1556L10.346 90.1655C10.8402 90.1738 11.2607 90.0957 11.6073 89.9312C11.9511 89.7637 12.215 89.5281 12.3992 89.2243C12.5805 88.9205 12.6746 88.5656 12.6815 88.1594C12.686 87.8952 12.6531 87.656 12.5829 87.4417C12.5099 87.2245 12.3994 87.0365 12.2515 86.8777C12.1008 86.7189 11.9125 86.5949 11.6867 86.5059L11.9759 85.5391C12.3037 85.6469 12.5905 85.8237 12.8364 86.0694C13.0794 86.315 13.2675 86.6165 13.4006 86.974C13.5309 87.3313 13.5923 87.7316 13.5848 88.1747ZM13.6988 81.464C13.6895 82.0094 13.5436 82.4885 13.2609 82.9014C12.9755 83.3142 12.578 83.6342 12.0683 83.8614C11.5559 84.0885 10.9531 84.1962 10.26 84.1844C9.57264 84.1728 8.97813 84.0448 8.47653 83.8004C7.97492 83.5561 7.58993 83.2214 7.32154 82.7963C7.05315 82.3712 6.92363 81.8831 6.93299 81.3321C6.94023 80.906 7.01696 80.5706 7.16318 80.3259C7.30661 80.0783 7.46891 79.8907 7.65008 79.7631C7.82846 79.6326 7.97508 79.5313 8.08996 79.4594L8.0914 79.3742L4.87028 79.3195L4.88735 78.314L13.6134 78.4621L13.5969 79.4336L12.5913 79.4165L12.5893 79.5358C12.7074 79.6117 12.8561 79.7194 13.0356 79.8588C13.2122 79.9982 13.3694 80.1955 13.5071 80.4507C13.642 80.7059 13.7059 81.0436 13.6988 81.464ZM12.7978 81.3123C12.8047 80.909 12.7053 80.5663 12.4999 80.2844C12.2916 80.0024 12.0012 79.7858 11.6287 79.6346C11.2534 79.4833 10.8186 79.4035 10.3243 79.3951C9.83576 79.3868 9.40706 79.4505 9.03822 79.5863C8.66654 79.7221 8.37608 79.9274 8.16684 80.2023C7.95476 80.4771 7.84524 80.8191 7.8383 81.2281C7.83106 81.6542 7.93439 82.0111 8.14828 82.2989C8.35939 82.5838 8.64978 82.8004 9.01948 82.9487C9.38638 83.0942 9.79991 83.1708 10.2601 83.1786C10.7259 83.1865 11.1504 83.1227 11.5334 82.9871C11.9136 82.8487 12.2184 82.6408 12.4475 82.3634C12.6739 82.0831 12.7907 81.7327 12.7978 81.3123ZM9.34739 72.6744C8.27368 72.6562 7.28897 72.5002 6.39326 72.2065C5.49476 71.91 4.67071 71.4954 3.92113 70.9627L3.93618 70.0764C4.21391 70.2857 4.5572 70.4834 4.96603 70.6693C5.37207 70.8524 5.81966 71.0148 6.3088 71.1567C6.7951 71.2985 7.29893 71.4121 7.82028 71.4977C8.34167 71.5804 8.8566 71.6261 9.36505 71.6348C10.0411 71.6462 10.7282 71.5926 11.4263 71.4737C12.1245 71.3549 12.7737 71.1897 13.3739 70.9783C13.9742 70.7669 14.4641 70.528 14.8437 70.2617L14.8286 71.1479C14.0614 71.6549 13.2252 72.0413 12.32 72.3072C11.412 72.5702 10.4211 72.6926 9.34739 72.6744ZM12.2173 64.3004L11.7571 64.2926C11.439 64.2872 11.1489 64.2169 10.887 64.0817C10.6222 63.9437 10.4125 63.7469 10.2577 63.4914C10.1001 63.233 10.0244 62.922 10.0306 62.5585C10.0369 62.1892 10.1231 61.881 10.2893 61.6337C10.4526 61.3865 10.6688 61.2012 10.938 61.0779C11.2043 60.9546 11.4966 60.8956 11.8147 60.901L12.2749 60.9088C12.593 60.9142 12.8845 60.9845 13.1492 61.1197C13.4112 61.252 13.6211 61.446 13.7787 61.7015C13.9335 61.9542 14.0078 62.2623 14.0016 62.6259C13.9954 62.9952 13.9106 63.3049 13.7472 63.555C13.581 63.805 13.3647 63.9931 13.0983 64.1193C12.8291 64.2454 12.5354 64.3058 12.2173 64.3004ZM11.7719 63.4234L12.232 63.4312C12.4962 63.4357 12.7344 63.3772 12.9468 63.2558C13.1562 63.1343 13.2636 62.9202 13.2688 62.6135C13.2739 62.3152 13.1737 62.1032 12.9685 61.9776C12.7604 61.849 12.5243 61.7825 12.2601 61.778L11.7999 61.7702C11.5358 61.7657 11.299 61.8214 11.0896 61.9372C10.8774 62.0529 10.7687 62.2641 10.7635 62.5709C10.7584 62.8692 10.8599 63.0854 11.0678 63.2196C11.273 63.351 11.5077 63.4189 11.7719 63.4234ZM7.14986 68.5616L6.6897 68.5537C6.37157 68.5483 6.08153 68.4781 5.81958 68.3429C5.55484 68.2049 5.34508 68.0081 5.19031 67.7526C5.03274 67.4942 4.95704 67.1832 4.96322 66.8196C4.96949 66.4504 5.0557 66.1421 5.22185 65.8949C5.38517 65.6476 5.60141 65.4624 5.87059 65.3391C6.13693 65.2157 6.42916 65.1568 6.7473 65.1622L7.20746 65.17C7.5256 65.1754 7.81706 65.2457 8.08185 65.3809C8.34384 65.5132 8.55365 65.7071 8.71126 65.9627C8.86609 66.2154 8.94041 66.5235 8.93424 66.8871C8.92796 67.2563 8.84315 67.566 8.67979 67.8161C8.51359 68.0662 8.29729 68.2543 8.03091 68.3805C7.76168 68.5066 7.468 68.567 7.14986 68.5616ZM6.70446 67.6845L7.16463 67.6924C7.42879 67.6968 7.66703 67.6384 7.87935 67.517C8.08883 67.3955 8.19618 67.1814 8.20139 66.8746C8.20645 66.5764 8.10634 66.3644 7.90106 66.2387C7.69299 66.1102 7.45687 66.0437 7.1927 66.0392L6.73254 66.0314C6.46837 66.0269 6.2316 66.0825 6.02221 66.1983C5.80999 66.314 5.70128 66.5253 5.69607 66.8321C5.691 67.1303 5.79246 67.3466 6.00044 67.4808C6.20562 67.6121 6.4403 67.6801 6.70446 67.6845ZM13.7851 68.3503L5.16095 62.203L5.17745 61.2315L13.8016 67.3789L13.7851 68.3503ZM9.61716 56.7892C10.6909 56.8075 11.677 56.9649 12.5755 57.2614C13.4712 57.5551 14.2938 57.9683 15.0434 58.501L15.0284 59.3872C14.7506 59.1779 14.4073 58.9817 13.9984 58.7986C13.5924 58.6127 13.1463 58.4488 12.66 58.307C12.1709 58.1652 11.6656 58.0529 11.1442 57.9702C10.62 57.8846 10.1051 57.8375 9.5995 57.8289C8.92346 57.8174 8.23637 57.8711 7.53823 57.9899C6.84009 58.1088 6.19089 58.2739 5.59062 58.4853C4.99035 58.6968 4.50043 58.9356 4.12085 59.202L4.1359 58.3157C4.90314 57.8088 5.74077 57.4238 6.64877 57.1608C7.55399 56.8949 8.54345 56.771 9.61716 56.7892Z" fill="#ACABB3"/>
<defs>
<linearGradient id="paint0_linear_1886_32685" x1="420.594" y1="218.522" x2="420.594" y2="97.7045" gradientUnits="userSpaceOnUse">
<stop stop-color="white"/>
<stop offset="1" stop-color="#D0F7D8"/>
</linearGradient>
<linearGradient id="paint1_linear_1886_32685" x1="452" y1="210" x2="429" y2="20" gradientUnits="userSpaceOnUse">
<stop stop-color="#BFE1F2" stop-opacity="0"/>
<stop offset="1" stop-color="#04A9FE" stop-opacity="0.69"/>
</linearGradient>
</defs>
</svg>
