<svg width="169" height="169" viewBox="0 0 169 169" fill="none" xmlns="http://www.w3.org/2000/svg">
<path d="M163.585 84.8625C163.585 128.54 128.178 163.948 84.5002 163.948C40.8227 163.948 5.41504 128.54 5.41504 84.8625C5.41504 41.185 40.8227 5.77734 84.5002 5.77734C128.178 5.77734 163.585 41.185 163.585 84.8625ZM21.2321 84.8625C21.2321 119.804 49.5582 148.131 84.5002 148.131C119.442 148.131 147.768 119.804 147.768 84.8625C147.768 49.9205 119.442 21.5944 84.5002 21.5944C49.5582 21.5944 21.2321 49.9205 21.2321 84.8625Z" fill="#F0F0F0"/>
<path d="M168.053 84.6074C168.053 130.999 130.645 168.607 84.5 168.607C38.3548 168.607 0.946777 130.999 0.946777 84.6074C0.946777 38.2155 38.3548 0.607422 84.5 0.607422C130.645 0.607422 168.053 38.2155 168.053 84.6074ZM2.61784 84.6074C2.61784 130.072 39.2777 166.927 84.5 166.927C129.722 166.927 166.382 130.072 166.382 84.6074C166.382 39.1433 129.722 2.28742 84.5 2.28742C39.2777 2.28742 2.61784 39.1433 2.61784 84.6074Z" fill="#F0F0F0"/>
<path d="M109.179 151.624C110.693 155.721 115.265 157.849 119.19 155.934C133.556 148.922 145.521 137.687 153.422 123.648C162.62 107.301 165.71 88.2178 162.138 69.8043C158.567 51.3907 148.567 34.8459 133.925 23.1238C121.349 13.0561 106.051 7.10879 90.1051 5.97607C85.7484 5.66659 82.3041 9.35003 82.4311 13.7159C82.5581 18.0818 86.2126 21.4668 90.5603 21.8851C102.747 23.0577 114.394 27.7496 124.04 35.4716C135.754 44.8492 143.754 58.0851 146.611 72.8159C149.468 87.5468 146.996 102.814 139.637 115.891C133.578 126.659 124.529 135.364 113.664 141.008C109.788 143.021 107.664 147.527 109.179 151.624Z" fill="#0CA866"/>
<path d="M14.1065 74.3342C9.7868 73.6882 5.71944 76.6689 5.50785 81.0315C4.97603 91.9973 6.73219 102.984 10.6983 113.283C15.6146 126.05 23.7582 137.322 34.3338 146C44.9093 154.678 57.5549 160.464 71.0353 162.793C81.9105 164.672 93.0289 164.249 103.68 161.587C107.917 160.527 110.046 155.956 108.569 151.846C107.092 147.735 102.567 145.653 98.3048 146.606C90.2555 148.406 81.9059 148.62 73.7282 147.207C62.944 145.343 52.8274 140.715 44.367 133.772C35.9066 126.83 29.3917 117.812 25.4587 107.599C22.4763 99.8548 21.056 91.6241 21.2494 83.3783C21.3519 79.0118 18.4262 74.9803 14.1065 74.3342Z" fill="#E0BF10"/>
<path d="M38.1675 30.8314C35.3243 27.5158 30.298 27.1077 27.2827 30.2677C17.9886 40.008 11.3331 51.9644 7.95134 64.9958C6.85421 69.2236 9.84939 73.2806 14.1655 73.9502C18.4816 74.6199 22.4751 71.6423 23.6776 67.4433C26.3483 58.1176 31.1297 49.528 37.6488 42.3445C40.5841 39.1101 41.0108 34.147 38.1675 30.8314Z" fill="#D72727"/>
<path d="M81.6715 13.7421C81.4979 9.37781 77.8086 5.93998 73.4834 6.54839C61.3319 8.25774 49.7418 12.773 39.6363 19.7344C36.0394 22.2122 35.6481 27.2398 38.4726 30.5713C41.2971 33.9029 46.265 34.2663 49.9227 31.8791C57.2502 27.0971 65.4922 23.8862 74.1236 22.4511C78.4322 21.7347 81.8451 18.1064 81.6715 13.7421Z" fill="#9397F6"/>
</svg>
